<svg xmlns="http://www.w3.org/2000/svg" width="16" height="15.093" viewBox="0 0 16 15.093">
  <path id="Icon_ionic-md-arrow-round-back" data-name="Icon ionic-md-arrow-round-back" d="M20.238,12.421h-9.73l3.774-3.61a1.5,1.5,0,0,0,0-2.055,1.345,1.345,0,0,0-1.964,0L6.034,12.849a1.385,1.385,0,0,0-.409,1.018v.018A1.385,1.385,0,0,0,6.034,14.9L12.313,21a1.345,1.345,0,0,0,1.964,0,1.5,1.5,0,0,0,0-2.055L10.5,15.331h9.73a1.423,1.423,0,0,0,1.391-1.455A1.408,1.408,0,0,0,20.238,12.421Z" transform="translate(-5.625 -6.33)" fill="#ff6047"/>
</svg>
