<svg id="open-box" xmlns="http://www.w3.org/2000/svg" width="32" height="32" viewBox="0 0 32 32">
  <path id="Path_684" data-name="Path 684" d="M84.438,3.75H79.75V2.813A2.816,2.816,0,0,0,76.938,0a4.683,4.683,0,0,0-3.75,1.878A4.683,4.683,0,0,0,69.438,0a2.816,2.816,0,0,0-2.812,2.813V3.75H61.938A.938.938,0,0,0,61,4.688v3.75a.938.938,0,0,0,.938.938h22.5a.938.938,0,0,0,.938-.937V4.688A.938.938,0,0,0,84.438,3.75Zm-7.5-1.875a.939.939,0,0,1,.938.938V3.75H74.286A2.817,2.817,0,0,1,76.938,1.875Zm-2.812,3.75V7.5H72.25V5.625ZM68.5,2.813a.939.939,0,0,1,.938-.937A2.817,2.817,0,0,1,72.089,3.75H68.5ZM62.875,5.625h7.5V7.5h-7.5ZM83.5,7.5H76V5.625h7.5Z" transform="translate(-57.188)" fill="#ff2060"/>
  <circle id="Ellipse_48" data-name="Ellipse 48" cx="0.938" cy="0.938" r="0.938" transform="translate(13.188 11.25)" fill="#ff6047"/>
  <circle id="Ellipse_49" data-name="Ellipse 49" cx="0.938" cy="0.938" r="0.938" transform="translate(0 13.125)" fill="#ff6047"/>
  <path id="Path_685" data-name="Path 685" d="M84.437,210a6.572,6.572,0,0,0-6.5,5.625H76v-2.812a.938.938,0,0,0-1.875,0v2.813H72.25v-2.812a.938.938,0,0,0-1.875,0v2.813H68.433a6.572,6.572,0,0,0-6.5-5.625.938.938,0,0,0,0,1.875,4.7,4.7,0,0,1,4.593,3.75H63.812a.938.938,0,0,0-.937.938v11.375a.938.938,0,0,0,.938.938h18.75a.938.938,0,0,0,.938-.937V216.563a.938.938,0,0,0-.937-.937H79.844a4.7,4.7,0,0,1,4.593-3.75.938.938,0,0,0,0-1.875ZM72.25,217.5h1.875V227H72.25Zm-7.5,0h5.625V227H64.75ZM81.625,227H76v-9.5h5.625Z" transform="translate(-57.187 -196.875)" fill="#ff6047"/>
  <circle id="Ellipse_50" data-name="Ellipse 50" cx="0.938" cy="0.938" r="0.938" transform="translate(30.125 13.125)" fill="#ff6047"/>
  <circle id="Ellipse_51" data-name="Ellipse 51" cx="0.938" cy="0.938" r="0.938" transform="translate(16.938 11.25)" fill="#ff6047"/>
</svg>
