<svg xmlns="http://www.w3.org/2000/svg" width="30" height="30" viewBox="0 0 30 30">
  <path id="Path_112" data-name="Path 112" d="M29.983,6.48a.906.906,0,0,0-.038-.186.945.945,0,0,0-.071-.174.693.693,0,0,0-.032-.079L26.092.416A.942.942,0,0,0,25.313,0H4.687a.94.94,0,0,0-.78.418L.158,6.043a.576.576,0,0,0-.032.079A.945.945,0,0,0,.054,6.3a.906.906,0,0,0-.037.186A.51.51,0,0,0,0,6.562V28.125A1.877,1.877,0,0,0,1.875,30h26.25A1.877,1.877,0,0,0,30,28.125V6.562A.584.584,0,0,0,29.983,6.48Zm-5.173-4.6,2.5,3.75h-8.7l-.626-3.75Zm-10.892,0H16.08l.626,3.75H13.294ZM13.125,7.5h3.75v3.388L15.3,10.359a.969.969,0,0,0-.592,0l-1.579.529ZM5.19,1.875h6.829l-.626,3.75h-8.7ZM28.125,29.063v-.937H1.875V7.5H11.25v4.688a.93.93,0,0,0,.39.759.952.952,0,0,0,.844.131L15,12.238l2.516.838a.952.952,0,0,0,.3.049.941.941,0,0,0,.938-.937V7.5h9.375V28.125h0Z" transform="translate(0 0)"/>
</svg>
