<svg id="calendar_1_" data-name="calendar (1)" xmlns="http://www.w3.org/2000/svg" width="30" height="30" viewBox="0 0 30 30">
  <g id="Group_398" data-name="Group 398">
    <g id="Group_397" data-name="Group 397">
      <path id="Path_675" data-name="Path 675" d="M28.828,20.625A1.172,1.172,0,0,0,30,19.453V7.031a4.693,4.693,0,0,0-4.687-4.687H23.789V1.172a1.172,1.172,0,0,0-2.344,0V2.344H16.113V1.172a1.172,1.172,0,0,0-2.344,0V2.344H8.5V1.172a1.172,1.172,0,0,0-2.344,0V2.344H4.688A4.693,4.693,0,0,0,0,7.031V25.313A4.693,4.693,0,0,0,4.688,30H25.313A4.693,4.693,0,0,0,30,25.313a1.172,1.172,0,0,0-2.344,0,2.346,2.346,0,0,1-2.344,2.344H4.688a2.346,2.346,0,0,1-2.344-2.344V7.031A2.346,2.346,0,0,1,4.688,4.688H6.152V5.859a1.172,1.172,0,0,0,2.344,0V4.688H13.77V5.859a1.172,1.172,0,0,0,2.344,0V4.688h5.332V5.859a1.172,1.172,0,0,0,2.344,0V4.688h1.523a2.346,2.346,0,0,1,2.344,2.344V19.453A1.172,1.172,0,0,0,28.828,20.625Z" fill="#ff6047"/>
      <path id="Path_676" data-name="Path 676" d="M144.5,201.488l-5.776,8.068a.669.669,0,0,1-.964.05l-3.739-3.591a1.172,1.172,0,0,0-1.623,1.691l3.743,3.594a3.022,3.022,0,0,0,2.079.831q.1,0,.2-.007a3.021,3.021,0,0,0,2.148-1.119l.039-.052,5.8-8.1a1.172,1.172,0,1,0-1.906-1.364Z" transform="translate(-124.303 -189.221)" fill="#ff2060"/>
    </g>
  </g>
</svg>
