<svg xmlns="http://www.w3.org/2000/svg" width="30" height="30" viewBox="0 0 30 30">
  <path id="Path_120" data-name="Path 120" d="M29.229,9.747,20.254.771a2.64,2.64,0,0,0-3.729,0L5.262,12.034H2.637A2.64,2.64,0,0,0,0,14.67V27.363A2.64,2.64,0,0,0,2.637,30H22.83a2.64,2.64,0,0,0,2.637-2.637V17.237l3.762-3.762a2.64,2.64,0,0,0,0-3.729ZM17.768,2.014a.88.88,0,0,1,1.243,0l4.625,4.625-5.395,5.395H7.748Zm5.942,25.349a.88.88,0,0,1-.879.879H2.637a.88.88,0,0,1-.879-.879V14.67a.88.88,0,0,1,.879-.879H22.83a.88.88,0,0,1,.879.879Zm-.521-15.3a2.648,2.648,0,0,0-.358-.025h-2.1l4.152-4.152,1.243,1.243Zm4.8.174-2.519,2.519V14.67a2.625,2.625,0,0,0-.661-1.744l2.559-2.559.621.621A.88.88,0,0,1,27.986,12.233Z" transform="translate(0 0)" />
</svg>
