<svg xmlns="http://www.w3.org/2000/svg" width="30" height="19.57" viewBox="0 0 30 19.57">
  <g id="credit-card_2_" data-name="credit-card (2)" transform="translate(0 -89)">
    <g id="Group_686" data-name="Group 686" transform="translate(0 89)">
      <path id="Path_720" data-name="Path 720" d="M27.363,89H2.637A2.64,2.64,0,0,0,0,91.637v14.3a2.64,2.64,0,0,0,2.637,2.637H27.363A2.64,2.64,0,0,0,30,105.934v-14.3A2.64,2.64,0,0,0,27.363,89Zm.879,16.934a.88.88,0,0,1-.879.879H2.637a.88.88,0,0,1-.879-.879V95.5H28.242Zm0-12.187H1.758V91.637a.88.88,0,0,1,.879-.879H27.363a.88.88,0,0,1,.879.879Z" transform="translate(0 -89)" fill="#ff6047"/>
    </g>
    <g id="Group_687" data-name="Group 687" transform="translate(4.746 102.125)">
      <path id="Path_721" data-name="Path 721" d="M81.879,314.758h7.5a.879.879,0,0,0,0-1.758h-7.5a.879.879,0,0,0,0,1.758Z" transform="translate(-81 -313)" fill="#ff2060"/>
    </g>
    <g id="Group_688" data-name="Group 688" transform="translate(4.746 98.375)">
      <path id="Path_722" data-name="Path 722" d="M81.879,250.758h7.5a.879.879,0,0,0,0-1.758h-7.5a.879.879,0,0,0,0,1.758Z" transform="translate(-81 -249)" fill="#ff2060"/>
    </g>
    <g id="Group_689" data-name="Group 689" transform="translate(18.809 98.375)">
      <path id="Path_723" data-name="Path 723" d="M321.879,254.508H327.5a.879.879,0,0,0,.879-.879v-3.75A.879.879,0,0,0,327.5,249h-5.625a.879.879,0,0,0-.879.879v3.75A.879.879,0,0,0,321.879,254.508Zm.879-3.75h3.867v1.992h-3.867Z" transform="translate(-321 -249)" fill="#ff2060"/>
    </g>
  </g>
</svg>
