<svg id="Group_35" data-name="Group 35" xmlns="http://www.w3.org/2000/svg" width="15.085" height="20" viewBox="0 0 15.085 20">
  <path id="Path_571" data-name="Path 571" d="M63.022,6.3a1.988,1.988,0,0,0-.562-1.244,1.725,1.725,0,0,0-1.244-.522H60.153V3.611A3.526,3.526,0,0,0,59.09,1.063,3.6,3.6,0,0,0,56.543,0a3.526,3.526,0,0,0-2.548,1.063,3.526,3.526,0,0,0-1.063,2.548v.923H51.869a1.725,1.725,0,0,0-1.244.522A1.988,1.988,0,0,0,50.063,6.3L49,18.175v.14a1.593,1.593,0,0,0,.5,1.163A1.951,1.951,0,0,0,50.625,20H62.44a1.95,1.95,0,0,0,1.143-.522,1.6,1.6,0,0,0,.5-1.184v-.14ZM54.035,3.611a2.528,2.528,0,0,1,5.055,0v.923H54.035Zm8.927,14.7a.505.505,0,0,1-.181.4.829.829,0,0,1-.461.221H50.725a.77.77,0,0,1-.461-.221.505.505,0,0,1-.181-.4v-.06L51.146,6.4a.92.92,0,0,1,.261-.562.653.653,0,0,1,.461-.2h1.063V8.084a.542.542,0,1,0,1.083,0V5.637H59.03V8.084a.542.542,0,1,0,1.083,0V5.637h1.063a.653.653,0,0,1,.461.2A.92.92,0,0,1,61.9,6.4l1.063,11.876Z" transform="translate(-49)" fill="#ececec"/>
</svg>
