<svg xmlns="http://www.w3.org/2000/svg" width="32" height="31.62" viewBox="0 0 32 31.62">
  <g id="certificate" transform="translate(0 -3.039)">
    <g id="Group_400" data-name="Group 400" transform="translate(0 3.039)">
      <g id="Group_399" data-name="Group 399" transform="translate(0 0)">
        <path id="Path_680" data-name="Path 680" d="M450,11.039h2v-8h-4v2h2Z" transform="translate(-420.002 -3.039)" fill="#ff6047"/>
        <path id="Path_681" data-name="Path 681" d="M2,5.039H22v-2H0v23H15v-2H2Z" transform="translate(0 -3.039)" fill="#ff6047"/>
        <path id="Path_682" data-name="Path 682" d="M271.109,136.816q-.077-.082-.159-.159a1.216,1.216,0,0,1-.38-.923,3.221,3.221,0,0,0-.939-2.381,3.275,3.275,0,0,0-2.381-.94,1.231,1.231,0,0,1-.928-.385,3.215,3.215,0,0,0-4.544-.156q-.081.075-.156.156a1.162,1.162,0,0,1-.927.385,3.214,3.214,0,0,0-3.321,3.1q0,.108,0,.217a1.217,1.217,0,0,1-.384.928,3.213,3.213,0,0,0-.159,4.541q.077.082.159.159a1.216,1.216,0,0,1,.384.927,3.221,3.221,0,0,0,.939,2.381,3.062,3.062,0,0,0,.657.486v9.475l5-2.5,5,2.5v-9.476a3.116,3.116,0,0,0,.657-.489,3.22,3.22,0,0,0,.939-2.38,1.217,1.217,0,0,1,.384-.928A3.213,3.213,0,0,0,271.109,136.816ZM266.97,151.39l-3-1.5-3,1.5v-5.761a1.214,1.214,0,0,1,.652.36,3.215,3.215,0,0,0,4.544.156q.081-.075.156-.156a1.161,1.161,0,0,1,.648-.335Zm2.675-11.552c-.019.02-.038.039-.058.058h0a3.211,3.211,0,0,0-1.015,2.457,1.2,1.2,0,0,1-.355.9,1.15,1.15,0,0,1-.9.355,3.2,3.2,0,0,0-2.456,1.018,1.242,1.242,0,0,1-1.756.018l-.018-.018a3.213,3.213,0,0,0-2.348-1.02h-.109a1.214,1.214,0,0,1-1.258-1.168q0-.043,0-.085a3.211,3.211,0,0,0-1.017-2.456,1.214,1.214,0,0,1-.058-1.716q.028-.03.058-.058a3.211,3.211,0,0,0,1.017-2.457,1.214,1.214,0,0,1,1.255-1.255,3.3,3.3,0,0,0,2.456-1.018,1.242,1.242,0,0,1,1.756-.018l.018.018a3.283,3.283,0,0,0,2.459,1.017,1.214,1.214,0,0,1,1.256,1.17q0,.043,0,.087a3.211,3.211,0,0,0,1.017,2.456A1.214,1.214,0,0,1,269.645,139.837Z" transform="translate(-239.972 -123.01)" fill="#ff2060"/>
        <path id="Path_683" data-name="Path 683" d="M324,195.039a4,4,0,1,0,4,4A4,4,0,0,0,324,195.039Zm0,6a2,2,0,1,1,2-2A2,2,0,0,1,324,201.039Z" transform="translate(-300.001 -183.04)" fill="#ff2060"/>
        <rect id="Rectangle_126" data-name="Rectangle 126" width="11.999" height="2" transform="translate(9.999 4)" fill="#ff6047"/>
        <rect id="Rectangle_127" data-name="Rectangle 127" width="11.999" height="2" transform="translate(4 8.999)" fill="#ff6047"/>
        <rect id="Rectangle_128" data-name="Rectangle 128" width="9.999" height="2" transform="translate(4 12.999)" fill="#ff6047"/>
        <rect id="Rectangle_129" data-name="Rectangle 129" width="2" height="2" transform="translate(11.999 16.999)" fill="#ff6047"/>
        <rect id="Rectangle_130" data-name="Rectangle 130" width="6" height="2" transform="translate(4 16.999)" fill="#ff6047"/>
        <rect id="Rectangle_131" data-name="Rectangle 131" width="2" height="2" transform="translate(23.999)" fill="#ff6047"/>
      </g>
    </g>
  </g>
</svg>
