<svg xmlns="http://www.w3.org/2000/svg" width="34.141" height="30.006" viewBox="0 0 34.141 30.006">
  <path id="Path_111" data-name="Path 111" d="M33.14,31H9.069a1,1,0,0,0-1,1V45.069A6.005,6.005,0,0,0,4.591,47H4.068V46a1,1,0,0,0-1-1H1a1,1,0,0,0,0,2H2.067v12H1a1,1,0,0,0,0,2H3.067a1,1,0,0,0,1-1v-1h.845c6.379,2.019,6.138,2,6.424,2H25.072a3,3,0,0,0,2.829-4h5.24a1,1,0,0,0,1-1V32A1,1,0,0,0,33.14,31Zm-14.07,2h4v5h-4Zm7,25.005a1,1,0,0,1-1,1H11.491c-6.379-2.019-6.138-2-6.424-2h-1V49h1a1,1,0,0,0,.8-.407,3.975,3.975,0,0,1,6.392,0,1,1,0,0,0,.805.407h5a1,1,0,0,1,0,2h-6a1,1,0,0,0-1,1,5.007,5.007,0,0,0,5,5h9A1,1,0,0,1,26.072,58.006Zm6.068-3H16.07a3.006,3.006,0,0,1-2.829-2h4.83a3,3,0,1,0,0-6H13.546a6.005,6.005,0,0,0-3.477-1.935V33h7v6a1,1,0,0,0,1,1h6a1,1,0,0,0,1-1V33H32.14Z" transform="translate(0 -31)"/>
</svg>
