<svg id="XMLID_2_" xmlns="http://www.w3.org/2000/svg" width="24" height="18" viewBox="0 0 24 18">
  <path id="XMLID_4_" d="M13.847,110.5H1.1a1.1,1.1,0,1,1,0-2.2H13.847l-1.423-1.422a1.1,1.1,0,0,1,1.556-1.556l3.3,3.3c.026.025.05.052.072.08l.016.021c.017.021.033.043.048.065l.012.02c.015.024.03.047.043.072l.007.015c.014.027.027.054.039.082l0,.011c.012.03.023.06.032.091,0,0,0,.008,0,.012.009.03.017.061.023.092,0,.009,0,.019,0,.028,0,.026.009.052.012.078a1.085,1.085,0,0,1,0,.22c0,.027-.007.053-.012.079,0,.009,0,.018,0,.027-.006.032-.014.062-.023.093l0,.011c-.009.031-.021.061-.033.091l0,.01c-.012.028-.025.056-.039.083l-.007.015c-.013.025-.028.049-.044.073l-.012.02c-.015.023-.032.044-.049.066l-.016.021c-.023.028-.047.054-.072.08l-3.3,3.3a1.1,1.1,0,0,1-1.556-1.556Z" transform="translate(6.396 -100.401)" fill="#888"/>
  <path id="XMLID_5_" d="M111.734,42.3a8.854,8.854,0,0,1,7.382,3.985,1.109,1.109,0,0,1-.3,1.527,1.078,1.078,0,0,1-1.508-.3,6.69,6.69,0,0,0-5.579-3.012,6.8,6.8,0,0,0,0,13.6,6.692,6.692,0,0,0,5.569-3,1.078,1.078,0,0,1,1.509-.3,1.109,1.109,0,0,1,.292,1.528,8.856,8.856,0,0,1-7.37,3.967,9,9,0,0,1,0-18Z" transform="translate(-102.845 -42.299)" fill="#888"/>
</svg>
