<svg id="Group_593" data-name="Group 593" xmlns="http://www.w3.org/2000/svg" width="16" height="17" viewBox="0 0 16 17">
  <path id="Path_169" data-name="Path 169" d="M30.185,5.189a.71.71,0,0,0-1,0l-8.527,8.561a2.835,2.835,0,0,1-4.011-4.008L25.423.932a1.772,1.772,0,0,1,2.506,2.506L20.656,10.7h0a.709.709,0,0,1-1-1l3.511-3.506a.709.709,0,1,0-1-1L18.65,8.7a2.126,2.126,0,0,0,3.009,3l0,0,7.27-7.26A3.19,3.19,0,0,0,24.418-.069L15.639,8.744a4.253,4.253,0,0,0,6.02,6.009l8.528-8.562A.708.708,0,0,0,30.185,5.189Z" transform="translate(-14.394 1.002)"/>
</svg>
