<svg id="settings" xmlns="http://www.w3.org/2000/svg" width="20" height="20" viewBox="0 0 20 20">
  <g id="Group_608" data-name="Group 608">
    <g id="Group_607" data-name="Group 607">
      <path id="Path_171" data-name="Path 171" d="M8.086,180.781A.781.781,0,0,0,7.3,180H4.18a.781.781,0,0,0-.781.781v1.4H0v1.563H3.4v1.333a.781.781,0,0,0,.781.781H7.3a.781.781,0,0,0,.781-.781v-1.333H20v-1.562H8.086ZM6.523,184.3H4.961v-2.734H6.523Z" transform="translate(0 -172.969)" fill="#fff"/>
      <path id="Path_172" data-name="Path 172" d="M16.836,362.781a.781.781,0,0,0-.781-.781H12.93a.781.781,0,0,0-.781.781v1.367H0v1.563H12.148v1.367a.781.781,0,0,0,.781.781h3.125a.781.781,0,0,0,.781-.781v-1.367H20v-1.562H16.836ZM15.273,366.3H13.711v-2.734h1.563Z" transform="translate(0 -347.859)" fill="#fff"/>
      <path id="Path_173" data-name="Path 173" d="M16.914,2.188V.781A.781.781,0,0,0,16.133,0H13.008a.781.781,0,0,0-.781.781V2.188H0V3.75H12.227V5.078a.781.781,0,0,0,.781.781h3.125a.781.781,0,0,0,.781-.781V3.75H20V2.188ZM15.352,4.3H13.789V1.563h1.563Z" fill="#fff"/>
    </g>
  </g>
</svg>
