<svg id="fireworks_1_" data-name="fireworks (1)" xmlns="http://www.w3.org/2000/svg" width="40" height="40" viewBox="0 0 40 40">
  <g id="Group_117" data-name="Group 117" transform="translate(18.828)">
    <g id="Group_116" data-name="Group 116">
      <circle id="Ellipse_36" data-name="Ellipse 36" cx="1.172" cy="1.172" r="1.172" fill="#ff6047"/>
    </g>
  </g>
  <g id="Group_119" data-name="Group 119" transform="translate(12.989 13.276)">
    <g id="Group_118" data-name="Group 118">
      <path id="Path_658" data-name="Path 658" d="M179.282,174.191l-3.425-.5-1.532-3.1a1.173,1.173,0,0,0-2.1,0l-1.532,3.1-3.425.5a1.173,1.173,0,0,0-.649,2l2.478,2.416-.585,3.411a1.173,1.173,0,0,0,1.7,1.235l3.063-1.61,3.063,1.61a1.173,1.173,0,0,0,1.7-1.235l-.585-3.411,2.478-2.416A1.173,1.173,0,0,0,179.282,174.191Zm-3.906,3.166a1.172,1.172,0,0,0-.337,1.037l.288,1.678-1.507-.792a1.172,1.172,0,0,0-1.091,0l-1.507.792.288-1.678a1.172,1.172,0,0,0-.337-1.037l-1.219-1.188,1.685-.245a1.172,1.172,0,0,0,.882-.641l.753-1.527.753,1.527a1.172,1.172,0,0,0,.882.641l1.685.245Z" transform="translate(-166.264 -169.938)" fill="#ff6047"/>
    </g>
  </g>
  <g id="Group_121" data-name="Group 121" transform="translate(18.828 37.656)">
    <g id="Group_120" data-name="Group 120">
      <circle id="Ellipse_37" data-name="Ellipse 37" cx="1.172" cy="1.172" r="1.172" fill="#ff6047"/>
    </g>
  </g>
  <g id="Group_123" data-name="Group 123" transform="translate(18.828 28.203)">
    <g id="Group_122" data-name="Group 122">
      <path id="Path_659" data-name="Path 659" d="M242.172,361A1.172,1.172,0,0,0,241,362.172v5.859a1.172,1.172,0,0,0,2.344,0v-5.859A1.172,1.172,0,0,0,242.172,361Z" transform="translate(-241 -361)" fill="#ff6047"/>
    </g>
  </g>
  <g id="Group_125" data-name="Group 125" transform="translate(18.828 3.594)">
    <g id="Group_124" data-name="Group 124">
      <path id="Path_660" data-name="Path 660" d="M242.172,46A1.172,1.172,0,0,0,241,47.172v5.859a1.172,1.172,0,0,0,2.344,0V47.172A1.172,1.172,0,0,0,242.172,46Z" transform="translate(-241 -46)" fill="#ff6047"/>
    </g>
  </g>
  <g id="Group_127" data-name="Group 127" transform="translate(34.188 8.073)">
    <g id="Group_126" data-name="Group 126">
      <circle id="Ellipse_38" data-name="Ellipse 38" cx="1.172" cy="1.172" r="1.172" fill="#ff6047"/>
    </g>
  </g>
  <g id="Group_129" data-name="Group 129" transform="translate(3.469 29.583)">
    <g id="Group_128" data-name="Group 128">
      <circle id="Ellipse_39" data-name="Ellipse 39" cx="1.172" cy="1.172" r="1.172" fill="#ff6047"/>
    </g>
  </g>
  <g id="Group_131" data-name="Group 131" transform="translate(6.349 24.205)">
    <g id="Group_130" data-name="Group 130">
      <path id="Path_661" data-name="Path 661" d="M88.195,310.328a1.172,1.172,0,0,0-1.632-.288l-4.8,3.361a1.172,1.172,0,1,0,1.344,1.92l4.8-3.361A1.172,1.172,0,0,0,88.195,310.328Z" transform="translate(-81.263 -309.828)" fill="#ff6047"/>
    </g>
  </g>
  <g id="Group_133" data-name="Group 133" transform="translate(26.508 10.09)">
    <g id="Group_132" data-name="Group 132">
      <path id="Path_662" data-name="Path 662" d="M346.229,129.651a1.172,1.172,0,0,0-1.632-.288l-4.8,3.361a1.172,1.172,0,0,0,1.344,1.92l4.8-3.361A1.172,1.172,0,0,0,346.229,129.651Z" transform="translate(-339.297 -129.151)" fill="#ff6047"/>
    </g>
  </g>
  <g id="Group_135" data-name="Group 135" transform="translate(3.469 8.073)">
    <g id="Group_134" data-name="Group 134">
      <circle id="Ellipse_40" data-name="Ellipse 40" cx="1.172" cy="1.172" r="1.172" fill="#ff6047"/>
    </g>
  </g>
  <g id="Group_137" data-name="Group 137" transform="translate(34.188 29.583)">
    <g id="Group_136" data-name="Group 136">
      <circle id="Ellipse_41" data-name="Ellipse 41" cx="1.172" cy="1.172" r="1.172" fill="#ff6047"/>
    </g>
  </g>
  <g id="Group_139" data-name="Group 139" transform="translate(26.507 24.205)">
    <g id="Group_138" data-name="Group 138">
      <path id="Path_663" data-name="Path 663" d="M345.94,313.4l-4.8-3.361a1.172,1.172,0,0,0-1.344,1.92l4.8,3.361a1.172,1.172,0,1,0,1.344-1.92Z" transform="translate(-339.296 -309.828)" fill="#ff6047"/>
    </g>
  </g>
  <g id="Group_141" data-name="Group 141" transform="translate(6.349 10.09)">
    <g id="Group_140" data-name="Group 140">
      <path id="Path_664" data-name="Path 664" d="M87.908,132.723l-4.8-3.361a1.172,1.172,0,0,0-1.344,1.92l4.8,3.361a1.172,1.172,0,1,0,1.344-1.92Z" transform="translate(-81.264 -129.15)" fill="#ff6047"/>
    </g>
  </g>
  <g id="Group_143" data-name="Group 143" transform="translate(28.203 16.484)">
    <g id="Group_142" data-name="Group 142">
      <path id="Path_665" data-name="Path 665" d="M369.281,211a3.521,3.521,0,0,0-3.314,2.344h-3.8a1.172,1.172,0,0,0,0,2.344h3.8A3.515,3.515,0,1,0,369.281,211Zm0,4.688a1.172,1.172,0,1,1,1.172-1.172A1.173,1.173,0,0,1,369.281,215.688Z" transform="translate(-361 -211)" fill="#ff2060"/>
    </g>
  </g>
  <g id="Group_145" data-name="Group 145" transform="translate(0 16.484)">
    <g id="Group_144" data-name="Group 144">
      <path id="Path_666" data-name="Path 666" d="M10.625,213.344H6.83a3.516,3.516,0,1,0,0,2.344h3.8a1.172,1.172,0,0,0,0-2.344Zm-7.109,2.344a1.172,1.172,0,1,1,1.172-1.172A1.173,1.173,0,0,1,3.516,215.688Z" transform="translate(0 -211)" fill="#ff2060"/>
    </g>
  </g>
  <g id="Group_147" data-name="Group 147" transform="translate(23.229 1.997)">
    <g id="Group_146" data-name="Group 146">
      <path id="Path_667" data-name="Path 667" d="M303.457,25.979a3.517,3.517,0,0,0-4.242,5.482l-1.744,3.28a1.172,1.172,0,0,0,2.069,1.1l1.746-3.283a3.515,3.515,0,0,0,2.171-6.58Zm-.616,3.654a1.172,1.172,0,1,1-.485-1.585A1.173,1.173,0,0,1,302.841,29.633Z" transform="translate(-297.333 -25.566)" fill="#ff2060"/>
    </g>
  </g>
  <g id="Group_149" data-name="Group 149" transform="translate(8.783 27.105)">
    <g id="Group_148" data-name="Group 148">
      <path id="Path_668" data-name="Path 668" d="M119.784,347.088a1.172,1.172,0,0,0-1.585.484l-1.745,3.282a3.513,3.513,0,1,0,2.07,1.1l1.744-3.28A1.172,1.172,0,0,0,119.784,347.088Zm-2.816,7.793a1.172,1.172,0,1,1-.484-1.585A1.171,1.171,0,0,1,116.968,354.881Z" transform="translate(-112.418 -346.95)" fill="#ff2060"/>
    </g>
  </g>
  <g id="Group_151" data-name="Group 151" transform="translate(8.783 1.997)">
    <g id="Group_150" data-name="Group 150">
      <path id="Path_669" data-name="Path 669" d="M120.267,34.739l-1.744-3.28a3.52,3.52,0,1,0-2.071,1.1L118.2,35.84a1.172,1.172,0,1,0,2.069-1.1Zm-3.785-4.623a1.172,1.172,0,1,1,.485-1.585A1.173,1.173,0,0,1,116.482,30.116Z" transform="translate(-112.417 -25.564)" fill="#ff2060"/>
    </g>
  </g>
  <g id="Group_153" data-name="Group 153" transform="translate(23.229 27.106)">
    <g id="Group_152" data-name="Group 152">
      <path id="Path_670" data-name="Path 670" d="M304.912,352.681a3.521,3.521,0,0,0-3.625-1.826l-1.745-3.282a1.172,1.172,0,0,0-2.069,1.1l1.744,3.28a3.516,3.516,0,1,0,5.7.727Zm-2.554,2.685a1.172,1.172,0,1,1,.485-1.585A1.171,1.171,0,0,1,302.358,355.366Z" transform="translate(-297.334 -346.951)" fill="#ff2060"/>
    </g>
  </g>
</svg>
