<svg xmlns="http://www.w3.org/2000/svg" width="20" height="17.578" viewBox="0 0 20 17.578">
  <g id="Избранное" transform="translate(-73 -98)">
    <path id="Path_570" data-name="Path 570" d="M14.688,31A5.29,5.29,0,0,0,10,34.165,5.29,5.29,0,0,0,5.313,31,5.452,5.452,0,0,0,0,36.723c0,4.158,3.968,6.769,9.614,11.71a.586.586,0,0,0,.772,0C16.027,43.5,20,40.882,20,36.723A5.452,5.452,0,0,0,14.688,31ZM10,47.215C4.8,42.7,1.172,40.189,1.172,36.723a4.264,4.264,0,0,1,4.141-4.551c2.275,0,3.686,2.107,4.123,3.672a.586.586,0,0,0,1.13,0C11,34.3,12.39,32.172,14.688,32.172a4.264,4.264,0,0,1,4.141,4.551C18.828,40.191,15.194,42.7,10,47.215Z" transform="translate(73 67)" fill="#ececec"/>
  </g>
</svg>
