<svg xmlns="http://www.w3.org/2000/svg" width="16" height="16" viewBox="0 0 16 16"><path d="M14.5 11c0 1.93-1.57 3.5-3.5 3.5H5c-1.93 0-3.5-1.57-3.5-3.5V5c0-1.93 1.57-3.5 3.5-3.5h6c1.93 0 3.5 1.57 3.5 3.5zM11 0H5a5 5 0 0 0-5 5v6a5 5 0 0 0 5 5h6a5 5 0 0 0 5-5V5a5 5 0 0 0-5-5z"/><path d="M8 10.508A2.512 2.512 0 0 1 5.492 8 2.51 2.51 0 0 1 8 5.492 2.51 2.51 0 0 1 10.508 8 2.512 2.512 0 0 1 8 10.508zm0-6.52a4.013 4.013 0 1 0 0 8.025 4.013 4.013 0 0 0 0-8.026z"/><path d="M11.764 3.701a.535.535 0 1 1 1.07 0 .535.535 0 0 1-1.07 0z"/></svg>
