<svg id="_034---Fireworks" data-name="034---Fireworks" xmlns="http://www.w3.org/2000/svg" width="30" height="30.524" viewBox="0 0 30 30.524">
  <path id="Shape" d="M.315,50.4l-.073-.087A1.035,1.035,0,0,1,.37,48.855l9.4-7.976,1.4,1.672-9.4,7.976A1.034,1.034,0,0,1,.315,50.4Z" transform="translate(0 -20.245)" fill="#b19046"/>
  <path id="Shape-2" data-name="Shape" d="M4.01,25.117A3.628,3.628,0,0,1,.665,23.255,6.687,6.687,0,0,1,.913,17,11.4,11.4,0,0,1,4.482,13.69C6.034,12.651,7.349,10.8,6.37,8.74A.517.517,0,0,1,7.305,8.3c1.039,2.191.155,4.646-2.249,6.254a10.535,10.535,0,0,0-3.259,3,5.637,5.637,0,0,0-.235,5.195A2.641,2.641,0,0,0,4.1,24.082a2.622,2.622,0,0,0,2.606-2.146.517.517,0,0,1,1.027.123,3.626,3.626,0,0,1-3.612,3.057H4.01Z" transform="translate(0 -4.373)" fill="#bdc3c7"/>
  <path id="Shape-3" data-name="Shape" d="M30.58,9.242,23.561,8.43l-2.55,2.141-2.674,2.24-2.209,1.857h-.005l-2.664,2.24-2.348,1.971-.967.812a1.034,1.034,0,0,0-.129,1.459l1.428,1.7L15.7,27.92a1.034,1.034,0,0,0,1.459.129l1.34-1.122,2.669-2.24,2.343-1.971,2.674-2.24L28.4,18.62l2.178-1.831Z" transform="translate(-4.718 -4.58)" fill="#f0c419"/>
  <path id="Shape-4" data-name="Shape" d="M21.166,34.439,18.5,36.678,11.442,32.6l-1.428-1.7a1.035,1.035,0,0,1,.129-1.459l.967-.812Z" transform="translate(-4.718 -14.332)" fill="#ff5364"/>
  <path id="Shape-5" data-name="Shape" d="M29.624,26.3l-2.674,2.24L16.9,22.73l2.664-2.24h.005Z" transform="translate(-8.159 -10.402)" fill="#ff5364"/>
  <path id="Shape-6" data-name="Shape" d="M38.568,18.787,36.39,20.618,26.33,14.81,29,12.57l8.431,4.872Z" transform="translate(-12.711 -6.579)" fill="#ff5364"/>
  <path id="Shape-7" data-name="Shape" d="M44.346,15.562,46.522,4.574a.546.546,0,0,0-.539-.642l-11.2.234a.545.545,0,0,0-.414.9l9.022,10.755a.546.546,0,0,0,.955-.254Z" transform="translate(-16.531 -2.409)" fill="#c03a2b"/>
  <g id="Group_6" data-name="Group 6" transform="translate(2.151)">
    <path id="Shape-8" data-name="Shape" d="M6.511,4.152a.517.517,0,0,0-.731,0l-.366.366-.366-.366a.517.517,0,0,0-.731.731l.366.366-.366.366a.517.517,0,1,0,.731.731l.366-.366.366.366a.517.517,0,0,0,.731-.731l-.366-.366.366-.366A.517.517,0,0,0,6.511,4.152Z" transform="translate(-4.159 -2.442)" fill="#f0c419"/>
    <path id="Shape-9" data-name="Shape" d="M15.146,3.492a.517.517,0,0,0,.366-.883l-.366-.366.366-.366a.517.517,0,0,0-.731-.731l-.366.366-.366-.366a.517.517,0,1,0-.731.731l.366.366-.366.366a.517.517,0,1,0,.731.731l.366-.366.366.366a.517.517,0,0,0,.366.152Z" transform="translate(-8.503 -0.988)" fill="#f0c419"/>
    <path id="Shape-10" data-name="Shape" d="M18.974,13.255l.366-.366a.517.517,0,0,0-.731-.731l-.366.366-.366-.366a.517.517,0,0,0-.731.731l.366.366-.366.366a.517.517,0,1,0,.731.731l.366-.366.366.366a.517.517,0,1,0,.731-.731Z" transform="translate(-10.352 -6.31)" fill="#f0c419"/>
  </g>
</svg>
