<svg xmlns="http://www.w3.org/2000/svg" width="14" height="19.27" viewBox="0 0 14 19.27">
  <g id="number-sign" transform="translate(-41.867)">
    <path id="Path_688" data-name="Path 688" d="M43.251,12.148a1.441,1.441,0,1,0,.5,2.838l.831-.146v2.989a1.441,1.441,0,0,0,2.881,0v-3.5l2.57-.452v3.047a1.441,1.441,0,0,0,2.882,0V13.376l1.762-.311a1.44,1.44,0,1,0-.5-2.837l-1.264.222V7.458l1.571-.276a1.441,1.441,0,0,0-.5-2.838l-1.071.188V1.441a1.441,1.441,0,0,0-2.882,0v3.6l-2.57.452V2.341a1.441,1.441,0,1,0-2.881,0V6l-1.521.267a1.441,1.441,0,0,0,.248,2.86,1.474,1.474,0,0,0,.251-.022l1.023-.18v2.992Zm4.21-3.731,2.57-.452v2.991l-2.57.452Z" fill="#1a1724"/>
  </g>
</svg>
