<svg xmlns="http://www.w3.org/2000/svg" width="50" height="44.92" viewBox="0 0 50 44.92">
  <g id="prize" transform="translate(0 -26.012)">
    <g id="Group_692" data-name="Group 692" transform="translate(0 26.013)">
      <path id="Path_724" data-name="Path 724" d="M49.608,208.525l-.977-1.691a.977.977,0,0,0-1.334-.357l-9.864,5.7H12.567l-9.864-5.7a.977.977,0,0,0-1.334.357l-.976,1.691a2.933,2.933,0,0,0,1.072,4l9.864,5.7v12.5a2.933,2.933,0,0,0,2.93,2.93H35.742a2.933,2.933,0,0,0,2.93-2.93v-12.5l9.864-5.7a2.935,2.935,0,0,0,1.072-4ZM24.569,231.7l12.15-12.15v5.05l-7.1,7.1Zm12.15-14.912L21.807,231.7h-5.05l17.577-17.577h2.385Zm-20.771-2.665-2.665,2.665v-2.665ZM2.441,210.836a.982.982,0,0,1-.357-1.334l.488-.846,8.757,5.056v2.255Zm10.841,16.529,3.513-3.513a.977.977,0,0,0-1.381-1.381L13.282,224.6v-5.05l5.428-5.427h5.05l-2.131,2.131a.977.977,0,1,0,1.381,1.381l3.512-3.512h5.05L14.024,231.673a.977.977,0,0,1-.742-.947Zm22.46,4.338H32.381l4.338-4.338v3.361A.978.978,0,0,1,35.742,231.7Zm12.27-21.46a.969.969,0,0,1-.453.594l-8.888,5.131v-2.255l8.757-5.056.488.846A.969.969,0,0,1,48.012,210.242Z" transform="translate(0 -188.736)" fill="#ff6047"/>
      <path id="Path_725" data-name="Path 725" d="M190.478,34.3l-.283,2.161a1.933,1.933,0,0,0,.165,1.207,1.953,1.953,0,0,0,2.61.9l2-.973,2.057.98a1.953,1.953,0,0,0,2.773-2.031l-.308-2.2L201,32.744a1.952,1.952,0,0,0-1.02-3.326l-2.19-.388-1.088-2h0a1.949,1.949,0,0,0-3.432.016l-1.046,1.963-2.2.408a1.95,1.95,0,0,0-1.094,3.279Zm-.107-2.958,2.673-.5a.977.977,0,0,0,.683-.5l1.262-2.375,1.31,2.41a.976.976,0,0,0,.688.5l2.656.469-.042.042-1.851,1.953a.976.976,0,0,0-.259.807l.375,2.668-2.482-1.182a.976.976,0,0,0-.847,0l-2.421,1.18q.007-.035.012-.07l.348-2.656a.977.977,0,0,0-.265-.8l-1.873-1.936Z" transform="translate(-169.991 -26.013)" fill="#ff2060"/>
      <path id="Path_726" data-name="Path 726" d="M246.55,174.632v4.526a.977.977,0,1,0,1.953,0v-4.526a.977.977,0,1,0-1.953,0Z" transform="translate(-222.474 -159.237)" fill="#ff2060"/>
      <path id="Path_727" data-name="Path 727" d="M124.289,148.893a.976.976,0,0,0,.357,1.334,8.3,8.3,0,0,1,3.55,6.2.977.977,0,0,0,.974.924h.054a.976.976,0,0,0,.922-1.028,10.147,10.147,0,0,0-4.524-7.785A.977.977,0,0,0,124.289,148.893Z" transform="translate(-112.034 -136.453)" fill="#ff2060"/>
      <path id="Path_728" data-name="Path 728" d="M26,63.037l2.024.786.786,2.022a1.777,1.777,0,0,0,3.314,0l.786-2.024,2.022-.786a1.777,1.777,0,0,0,0-3.314l-2.024-.786-.786-2.023a1.777,1.777,0,0,0-3.314,0l-.786,2.024L26,59.723a1.777,1.777,0,0,0,0,3.314ZM29.131,60.6a.976.976,0,0,0,.557-.557l.778-2,.778,2a.976.976,0,0,0,.557.557l2,.778-2,.778a.977.977,0,0,0-.557.557l-.778,2-.778-2a.977.977,0,0,0-.557-.557l-2-.778Z" transform="translate(-22.436 -52.872)" fill="#ff2060"/>
      <path id="Path_729" data-name="Path 729" d="M327.442,157.348h.054a.977.977,0,0,0,.974-.924,8.3,8.3,0,0,1,3.55-6.2.977.977,0,1,0-.977-1.691,10.147,10.147,0,0,0-4.524,7.785A.977.977,0,0,0,327.442,157.348Z" transform="translate(-294.633 -136.452)" fill="#ff2060"/>
      <path id="Path_730" data-name="Path 730" d="M373.562,63.037l2.024.786.786,2.022a1.777,1.777,0,0,0,3.314,0l.786-2.024,2.022-.786a1.777,1.777,0,0,0,0-3.314l-2.024-.786-.785-2.022a1.777,1.777,0,0,0-3.314,0l-.786,2.024-2.022.786a1.777,1.777,0,0,0,0,3.314Zm3.132-2.435a.976.976,0,0,0,.557-.557l.778-2,.778,2a.976.976,0,0,0,.557.557l2,.778-2,.778a.976.976,0,0,0-.557.557l-.778,2-.778-2a.976.976,0,0,0-.557-.557l-2-.778Z" transform="translate(-336.059 -52.872)" fill="#ff2060"/>
      <path id="Path_731" data-name="Path 731" d="M187.709,338.679a.977.977,0,1,0,0-1.953h0a.977.977,0,0,0,0,1.953Z" transform="translate(-168.497 -306.384)" fill="#ff6047"/>
    </g>
  </g>
</svg>
