<svg xmlns="http://www.w3.org/2000/svg" width="24" height="29.538" viewBox="0 0 24 29.538">
  <g id="Group_113" data-name="Group 113" transform="translate(-350 -1078)">
    <path id="sale" d="M68.807,8.905c-1.02-1.44-1.826-2.577-1.826-3.944a1.2,1.2,0,0,0-1.212-1.154,1.317,1.317,0,0,0-.789.262,22.949,22.949,0,0,0-3,3.358c-1.063-1.489-1.513-3.415-1.513-6.273A1.258,1.258,0,0,0,59.192,0a1.563,1.563,0,0,0-.728.179,26.894,26.894,0,0,0-5.892,5.485,22.6,22.6,0,0,0-3.17,5.22A16.881,16.881,0,0,0,48,17.522,12.022,12.022,0,0,0,60,29.538a11.734,11.734,0,0,0,7.983-3.008,1.154,1.154,0,0,0-1.544-1.716A9.461,9.461,0,0,1,60,27.231a9.712,9.712,0,0,1-9.692-9.709A16.639,16.639,0,0,1,54.375,7.1a26.584,26.584,0,0,1,3.859-3.893,10.29,10.29,0,0,0,3.049,6.914,1.154,1.154,0,0,0,1.758-.2,24.483,24.483,0,0,1,2.076-2.7,14.877,14.877,0,0,0,1.807,3.021,12.135,12.135,0,0,1,2.768,7.106s0,.011,0,.02a10.884,10.884,0,0,1-.418,2.858,1.154,1.154,0,1,0,2.22.63A13.642,13.642,0,0,0,72,17.481C72,13.411,70.23,10.913,68.807,8.905Z" transform="translate(302 1078)" fill="#ff6047"/>
    <path id="sale-2" data-name="sale" d="M62.077,21.923a1.731,1.731,0,1,1,1.731,1.731A1.731,1.731,0,0,1,62.077,21.923ZM55.458,23.39a1.154,1.154,0,0,0,1.624-.156L64.7,14a1.154,1.154,0,0,0-1.78-1.469L55.3,21.766A1.154,1.154,0,0,0,55.458,23.39Zm2.465-9.544a1.731,1.731,0,1,0-1.731,1.731,1.731,1.731,0,0,0,1.731-1.731Z" transform="translate(302 1078)" fill="#ff2060"/>
  </g>
</svg>
