<svg xmlns="http://www.w3.org/2000/svg" width="30" height="30" viewBox="0 0 30 30">
  <g id="price-tag" transform="translate(0 0)">
    <path id="Path_716" data-name="Path 716" d="M176.034,126.718l4.143-12.43a.879.879,0,0,0-1.668-.556l-4.143,12.43a.879.879,0,1,0,1.668.556Z" transform="translate(-164.107 -106.502)" fill="#ff2060"/>
    <path id="Path_717" data-name="Path 717" d="M267.17,194.476a2.637,2.637,0,1,0-2.637-2.637A2.64,2.64,0,0,0,267.17,194.476Zm0-3.516a.879.879,0,1,1-.879.879A.88.88,0,0,1,267.17,190.961Z" transform="translate(-249.033 -178.117)" fill="#ff2060"/>
    <path id="Path_718" data-name="Path 718" d="M97.464,189.2a2.637,2.637,0,1,0,2.637,2.637A2.64,2.64,0,0,0,97.464,189.2Zm0,3.516a.879.879,0,1,1,.879-.879A.88.88,0,0,1,97.464,192.719Z" transform="translate(-89.271 -178.117)" fill="#ff2060"/>
    <path id="Path_719" data-name="Path 719" d="M29.824,10.9,26.76,6.812l.12-.837a.879.879,0,0,0-.249-.746L24.766,3.365,26.63,1.5A.879.879,0,0,0,25.388.258L23.523,2.122,21.659.258a.88.88,0,0,0-.746-.249l-8.7,1.243a.879.879,0,0,0-.5.249L.943,12.273a3.226,3.226,0,0,0,0,4.558l9.115,9.115a3.215,3.215,0,0,0,.607.476v.356A3.226,3.226,0,0,0,13.887,30H26.778A3.226,3.226,0,0,0,30,26.778V11.426a.879.879,0,0,0-.176-.527ZM2.186,15.588a1.466,1.466,0,0,1,0-2.072L12.751,2.951l7.976-1.139L22.28,3.365,21.037,4.608l-.622-.622A.879.879,0,0,0,19.173,5.23l2.486,2.486A.879.879,0,0,0,22.9,6.473l-.622-.622,1.243-1.243,1.554,1.554-1.139,7.976L13.372,24.7a1.465,1.465,0,0,1-2.072,0Zm26.057,11.19a1.467,1.467,0,0,1-1.465,1.465H13.887a1.466,1.466,0,0,1-1.46-1.357,3.21,3.21,0,0,0,2.189-.94L25.387,15.173a.879.879,0,0,0,.249-.5l.772-5.4,1.834,2.446Z" transform="translate(0)" fill="#ff6047"/>
  </g>
</svg>
