<svg xmlns="http://www.w3.org/2000/svg" width="32" height="24.375" viewBox="0 0 32 24.375">
  <g id="truck" transform="translate(0 -61)">
    <path id="Path_610" data-name="Path 610" d="M99.438,301h-7.5a.938.938,0,0,0,0,1.875h7.5a.937.937,0,1,0,0-1.875Z" transform="translate(-85.313 -225)" fill="#ff2060"/>
    <path id="Path_611" data-name="Path 611" d="M90.535,126.995l-.377,2.2a.937.937,0,0,0,1.36.988l1.972-1.037,1.972,1.037a.937.937,0,0,0,1.36-.988l-.377-2.2,1.6-1.555a.938.938,0,0,0-.52-1.6l-2.2-.32-.986-2a.937.937,0,0,0-1.681,0l-.986,2-2.2.32a.938.938,0,0,0-.52,1.6Zm1.886-1.69a.937.937,0,0,0,.706-.513l.363-.736.363.736a.938.938,0,0,0,.706.513l.813.118-.588.573a.938.938,0,0,0-.27.83l.139.809-.727-.382a.937.937,0,0,0-.872,0l-.727.382.139-.809a.938.938,0,0,0-.27-.83l-.588-.573Z" transform="translate(-83.115 -56.25)" fill="#ff2060"/>
    <path id="Path_612" data-name="Path 612" d="M30.445,73.706l-2.366-1.183-1.325-3.975a2.809,2.809,0,0,0-2.668-1.923H20.75V61.937A.938.938,0,0,0,19.813,61H.938A.938.938,0,0,0,0,61.937V82.562a.938.938,0,0,0,.938.938H3.974a2.812,2.812,0,0,0,5.3,0h13.51a2.812,2.812,0,0,0,5.3,0h2.974A.938.938,0,0,0,32,82.562V76.221a2.8,2.8,0,0,0-1.555-2.516ZM24.086,68.5a.936.936,0,0,1,.889.641l1.036,3.109H20.75V68.5ZM1.875,79.75h.938a.938.938,0,0,0,0-1.875H1.875v-15h17v18.75h-9.6a2.812,2.812,0,0,0-5.3,0h-2.1Zm4.75,3.75a.938.938,0,1,1,.938-.937A.939.939,0,0,1,6.625,83.5Zm18.813,0a.938.938,0,1,1,.938-.937A.939.939,0,0,1,25.438,83.5Zm2.651-1.875a2.812,2.812,0,0,0-5.3,0H20.75v-7.5h6.341l2.516,1.258a.932.932,0,0,1,.518.839v1.654h-.937a.938.938,0,1,0,0,1.875h.938v1.875Z" transform="translate(0)" fill="#ff6047"/>
  </g>
</svg>
