<svg xmlns="http://www.w3.org/2000/svg" width="14" height="16.781" viewBox="0 0 14 16.781">
  <g id="user2" transform="translate(0 0)">
    <path id="Path_686" data-name="Path 686" d="M91.073,8.083A3.911,3.911,0,0,0,93.931,6.9a3.911,3.911,0,0,0,1.184-2.858,3.911,3.911,0,0,0-1.184-2.858,4.041,4.041,0,0,0-5.715,0,3.911,3.911,0,0,0-1.184,2.858A3.911,3.911,0,0,0,88.216,6.9,3.912,3.912,0,0,0,91.073,8.083Zm0,0" transform="translate(-84.179)" fill="#1a1724"/>
    <path id="Path_687" data-name="Path 687" d="M13.966,252.114a9.983,9.983,0,0,0-.136-1.06,8.354,8.354,0,0,0-.261-1.066,5.266,5.266,0,0,0-.438-.994,3.752,3.752,0,0,0-.661-.861,2.913,2.913,0,0,0-.949-.6,3.281,3.281,0,0,0-1.212-.219,1.23,1.23,0,0,0-.657.279c-.2.128-.427.277-.684.441a3.92,3.92,0,0,1-.885.39,3.437,3.437,0,0,1-2.166,0,3.91,3.91,0,0,1-.885-.39c-.255-.163-.485-.311-.685-.441a1.228,1.228,0,0,0-.657-.279,3.277,3.277,0,0,0-1.212.22,2.911,2.911,0,0,0-.949.6,3.753,3.753,0,0,0-.661.861,5.276,5.276,0,0,0-.438.994,8.374,8.374,0,0,0-.261,1.066,9.949,9.949,0,0,0-.136,1.061c-.022.321-.034.654-.034.991a2.786,2.786,0,0,0,.828,2.108,2.979,2.979,0,0,0,2.133.778h8.08a2.978,2.978,0,0,0,2.132-.778A2.785,2.785,0,0,0,14,253.105c0-.338-.012-.672-.034-.991Zm0,0" transform="translate(0 -239.21)" fill="#1a1724"/>
  </g>
</svg>
