<svg xmlns="http://www.w3.org/2000/svg" width="14.689" height="16" viewBox="0 0 14.689 16">
  <g id="viber" transform="translate(-1.38 0.013)">
    <path id="Path_565" data-name="Path 565" d="M15.918,9.249c.478-4.014-.23-6.549-1.506-7.7h0C12.352-.4,5.394-.694,2.929,1.641c-1.107,1.142-1.5,2.819-1.54,4.894S1.3,12.5,4.929,13.556h0l0,1.611s-.025.653.393.784c.478.155.694-.149,2.181-1.92a13.637,13.637,0,0,0,4.613-.35c.5-.168,3.343-.543,3.8-4.432ZM7.748,12.9s-1.574,1.958-2.063,2.466c-.16.165-.336.15-.333-.178,0-.215.012-2.675.012-2.675-3.08-.881-2.9-4.192-2.865-5.925A5.813,5.813,0,0,1,3.788,2.477C5.95.455,12.051.907,13.6,2.364c1.9,1.681,1.224,6.428,1.228,6.59-.391,3.246-2.693,3.452-3.116,3.593a12.581,12.581,0,0,1-3.969.35Z" transform="translate(0 0)" />
    <path id="Path_566" data-name="Path 566" d="M12.126,4.3a.2.2,0,0,0,0,.4,3.632,3.632,0,0,1,3.655,3.955.2.2,0,1,0,.391,0h0A4.03,4.03,0,0,0,12.126,4.3Z" transform="translate(-3.507 -1.442)" />
    <path id="Path_567" data-name="Path 567" d="M14.92,8.757a.2.2,0,1,0,.391.009,2.7,2.7,0,0,0-2.657-2.894.2.2,0,0,0-.027.4A2.305,2.305,0,0,1,14.92,8.757Z" transform="translate(-3.678 -1.967)" />
    <path id="Path_568" data-name="Path 568" d="M12.433,10.187a.617.617,0,0,0-.8.116l-.29.376a.519.519,0,0,1-.423.166,3.875,3.875,0,0,1-2.55-2.638.561.561,0,0,1,.16-.438l.363-.3A.669.669,0,0,0,9,6.635,8.677,8.677,0,0,0,8,5.2a.537.537,0,0,0-.722-.122H7.275c-.578.338-1.21.97-1.008,1.621a10.923,10.923,0,0,0,3,4.527,11.541,11.541,0,0,0,3.092,1.768l.006.009c.629.21,1.241-.447,1.567-1.042v0a.572.572,0,0,0-.115-.738,7.871,7.871,0,0,0-1.386-1.03Z" transform="translate(-1.612 -1.679)" />
    <path id="Path_569" data-name="Path 569" d="M13.078,7.9c.642.037.953.373.986,1.061a.2.2,0,1,0,.391-.019A1.34,1.34,0,0,0,13.1,7.5.2.2,0,0,0,13.078,7.9Z" transform="translate(-3.827 -2.51)" />
  </g>
</svg>
