<svg id="wallet" xmlns="http://www.w3.org/2000/svg" width="30" height="26.855" viewBox="0 0 30 26.855">
  <path id="Path_117" data-name="Path 117" d="M27.044,30.393a4.056,4.056,0,0,0-4.038-3.737H4.051A4.057,4.057,0,0,0,0,30.709v18.75a4.057,4.057,0,0,0,4.051,4.053h21.9A4.057,4.057,0,0,0,30,49.459V34.294A4.059,4.059,0,0,0,27.044,30.393ZM4.051,28.549H23.006a2.162,2.162,0,0,1,2.107,1.692H4.051a4.025,4.025,0,0,0-2.159.626v-.158a2.162,2.162,0,0,1,2.159-2.159Zm21.9,23.069H4.051a2.162,2.162,0,0,1-2.159-2.159V34.294a2.162,2.162,0,0,1,2.159-2.159h21.9a2.162,2.162,0,0,1,2.159,2.159v3.3H22.073a4.338,4.338,0,0,0,0,8.676h6.034v3.186A2.162,2.162,0,0,1,25.949,51.618Zm2.159-7.238H22.073a2.445,2.445,0,0,1,0-4.889h6.034Z" transform="translate(0 -26.656)" />
  <circle id="Ellipse_40" data-name="Ellipse 40" cx="0.986" cy="0.986" r="0.986" transform="translate(21.439 14.366)" />
</svg>
