<svg xmlns="http://www.w3.org/2000/svg" width="30" height="29.883" viewBox="0 0 30 29.883">
  <g id="wallet_2_" data-name="wallet (2)" transform="translate(0 -1)">
    <g id="Group_87" data-name="Group 87" transform="translate(0 1)">
      <path id="Path_621" data-name="Path 621" d="M27.129,13.656V9.73a2.64,2.64,0,0,0-2.637-2.637c-5.159,0-17.3.1-22.559.1A2.641,2.641,0,0,0,0,9.73V28.246a2.64,2.64,0,0,0,2.637,2.637H24.492a2.64,2.64,0,0,0,2.637-2.637V22.914h.234A2.64,2.64,0,0,0,30,20.277V16.293ZM24.492,29.125H2.637a.88.88,0,0,1-.879-.879V27.133H25.371v1.113A.88.88,0,0,1,24.492,29.125Zm.879-3.75H1.758V9.73a.88.88,0,0,1,.879-.879H24.492a.88.88,0,0,1,.879.879v3.926h-5.8a2.64,2.64,0,0,0-2.637,2.637v3.984a2.64,2.64,0,0,0,2.637,2.637h5.8Zm2.871-5.1a.88.88,0,0,1-.879.879H19.57a.88.88,0,0,1-.879-.879V16.293a.88.88,0,0,1,.879-.879h7.793a.88.88,0,0,1,.879.879Z" transform="translate(0 -1)" fill="#ff6047"/>
      <path id="Path_624" data-name="Path 624" d="M24.316,7.19V3.754a.879.879,0,0,0-.879-.879H17.754v-1A.879.879,0,0,0,16.875,1H2.813a.879.879,0,0,0-.879.879V7.19ZM22.559,4.633V7.19h-4.8V4.633ZM3.691,2.758H16V7.19H3.691Z" transform="translate(0 -1)" fill="#ff2060"/>
    </g>
    <g id="Group_88" data-name="Group 88" transform="translate(20.599 17.338)">
      <path id="Path_622" data-name="Path 622" d="M354.868,281.761a.937.937,0,1,0-.647,1.08A.938.938,0,0,0,354.868,281.761Z" transform="translate(-353.012 -281.007)" fill="#ff2060"/>
    </g>
  </g>
</svg>
