<svg xmlns="http://www.w3.org/2000/svg" width="16" height="16" viewBox="0 0 16 16">
  <g id="XMLID_468_" transform="translate(0)">
    <path id="XMLID_469_" d="M88.527,84.7c-.031-.015-1.2-.589-1.4-.664a.807.807,0,0,0-.272-.06.462.462,0,0,0-.393.233c-.117.173-.469.586-.578.709-.014.016-.034.036-.045.036s-.191-.074-.246-.1a6.138,6.138,0,0,1-2.331-2.071.129.129,0,0,1-.02-.046.376.376,0,0,1,.068-.081c.064-.063.132-.146.2-.226.032-.038.063-.076.094-.112a1.257,1.257,0,0,0,.19-.3l.026-.053a.544.544,0,0,0-.016-.512c-.028-.055-.52-1.244-.572-1.369-.126-.3-.292-.442-.524-.442l-.09,0a2.8,2.8,0,0,0-.97.249,2.03,2.03,0,0,0-.753,1.727,3.723,3.723,0,0,0,.807,2.05l.033.048a7.6,7.6,0,0,0,3.259,2.83,5.3,5.3,0,0,0,1.969.5h0a3.077,3.077,0,0,0,.32-.019l.057-.005a2.069,2.069,0,0,0,1.443-1.021,1.614,1.614,0,0,0,.092-1.063A.736.736,0,0,0,88.527,84.7Z" transform="translate(-76.688 -75.51)"/>
    <path id="XMLID_470_" d="M8.142,0A7.838,7.838,0,0,0,.284,7.8a7.742,7.742,0,0,0,1.077,3.944L.011,15.726a.208.208,0,0,0,.26.265l4.152-1.319A7.871,7.871,0,0,0,16,7.8,7.838,7.838,0,0,0,8.142,0Zm0,13.974a6.226,6.226,0,0,1-3.425-1.021.208.208,0,0,0-.177-.024l-2.08.661.671-1.981a.208.208,0,0,0-.029-.189A6.09,6.09,0,0,1,1.917,7.8a6.225,6.225,0,1,1,6.225,6.174Z" transform="translate(0)"/>
  </g>
</svg>
