<?xml version="1.0" encoding="utf-8"?>
<!-- Generator: Adobe Illustrator 25.0.0, SVG Export Plug-In . SVG Version: 6.00 Build 0)  -->
<svg version="1.1" id="Layer_1" xmlns="http://www.w3.org/2000/svg" xmlns:xlink="http://www.w3.org/1999/xlink" x="0px" y="0px"
	 viewBox="0 0 512 512" style="enable-background:new 0 0 512 512;" xml:space="preserve">
<style type="text/css">
	.st0{fill:#010202;}
</style>
<path id="Shape" class="st0" d="M27.06,478.92l-1.12-1.33c-5.62-6.71-4.75-16.71,1.96-22.33l143.98-122.17l21.44,25.61L49.35,480.87
	C42.65,486.47,32.68,485.6,27.06,478.92z"/>
<path id="Shape-2" class="st0" d="M83.66,334.77c-21.11,1.01-40.97-10.04-51.24-28.52c-14.68-30.59-13.26-66.47,3.8-95.81
	c14.36-20.64,33.01-37.93,54.67-50.7c23.77-15.91,43.91-44.27,28.92-75.82c-1.72-4.02,0.14-8.68,4.16-10.4
	c3.82-1.64,8.26-0.04,10.16,3.66c15.91,33.56,2.37,71.16-34.45,95.79c-19.71,11.61-36.72,27.27-49.92,45.95
	c-14.09,24.35-15.44,54.05-3.6,79.57c7.82,13.86,23.03,21.85,38.87,20.42c19.53,0.21,36.37-13.67,39.92-32.87
	c0.52-4.34,4.46-7.44,8.81-6.92c4.34,0.52,7.44,4.46,6.92,8.81l0,0c-4.31,27.15-27.84,47.06-55.33,46.82h-1.7V334.77z"/>
<path id="Shape-3" class="st0" d="M418.37,88.44L310.85,76.01L271.8,108.8l-40.96,34.31L197,171.55h-0.08l-40.8,34.31l-35.96,30.19
	l-14.81,12.44c-6.71,5.61-7.61,15.59-2.01,22.31c0.01,0.01,0.02,0.03,0.03,0.04l21.87,26.04l65.2,77.66
	c5.61,6.71,15.59,7.61,22.31,2.01c0.01-0.01,0.03-0.02,0.04-0.03l20.52-17.19l40.88-34.31l35.89-30.19l40.96-34.31l33.93-28.43
	l33.36-28.05L418.37,88.44z"/>
<path id="Shape-4" class="st0" d="M274.17,325.02l-40.84,34.3l-108.11-62.46l-21.87-26.04c-5.63-6.71-4.75-16.71,1.96-22.33
	c0.01,0,0.01-0.01,0.02-0.01l14.81-12.44L274.17,325.02z"/>
<path id="Shape-5" class="st0" d="M351.02,260.55l-40.96,34.31l-153.94-88.99l40.8-34.31H197L351.02,260.55z"/>
<path id="Shape-6" class="st0" d="M418.29,204.03l-33.36,28.05l-154.09-88.96l40.9-34.31l129.14,74.62L418.29,204.03z"/>
<path id="Shape-7" class="st0" d="M448.28,218.5l33.33-168.3c0.81-4.55-2.22-8.89-6.76-9.7c-0.49-0.09-0.99-0.13-1.49-0.13
	L301.8,43.95c-4.61,0-8.35,3.73-8.36,8.34c0,2,0.71,3.93,2.01,5.44l138.19,164.74c2.97,3.53,8.25,3.99,11.78,1.01
	c1.49-1.25,2.5-2.99,2.84-4.91L448.28,218.5z"/>
<g id="Group_6" transform="translate(2.151)">
	<path id="Shape-8" class="st0" d="M89.06,43.23c-3.09-3.09-8.1-3.09-11.2,0l-5.61,5.61l-5.61-5.61c-3.15-3.03-8.17-2.93-11.2,0.23
		c-2.94,3.06-2.94,7.91,0,10.97l5.61,5.61l-5.61,5.61c-3.15,3.03-3.26,8.04-0.23,11.2c3.03,3.15,8.04,3.26,11.2,0.23
		c0.08-0.07,0.15-0.15,0.23-0.23l5.61-5.61l5.61,5.61c3.15,3.03,8.17,2.93,11.2-0.23c2.94-3.06,2.94-7.91,0-10.97l-5.61-5.61
		l5.61-5.61C92.15,51.33,92.15,46.32,89.06,43.23z"/>
	<path id="Shape-9" class="st0" d="M154.78,55.39c4.37,0.01,7.92-3.53,7.93-7.91c0-2.11-0.83-4.13-2.33-5.62l-5.61-5.61l5.61-5.61
		c3.03-3.15,2.93-8.17-0.23-11.2c-3.06-2.94-7.91-2.94-10.97,0l-5.61,5.61l-5.61-5.61c-3.03-3.15-8.04-3.26-11.2-0.23
		c-3.15,3.03-3.26,8.04-0.23,11.2c0.07,0.08,0.15,0.15,0.23,0.23l5.61,5.61l-5.61,5.61c-3.15,3.03-3.26,8.04-0.23,11.2
		s8.04,3.26,11.2,0.23c0.08-0.07,0.15-0.15,0.23-0.23l5.61-5.61l5.61,5.61c1.49,1.49,3.5,2.33,5.61,2.33H154.78z"/>
	<path id="Shape-10" class="st0" d="M185.09,123.41l5.61-5.61c3.03-3.15,2.93-8.17-0.23-11.2c-3.06-2.94-7.91-2.94-10.97,0
		l-5.61,5.61l-5.61-5.61c-3.15-3.03-8.17-2.93-11.2,0.23c-2.94,3.06-2.94,7.91,0,10.97l5.61,5.61l-5.61,5.61
		c-3.15,3.03-3.26,8.04-0.23,11.2c3.03,3.15,8.04,3.26,11.2,0.23c0.08-0.07,0.15-0.15,0.23-0.23l5.61-5.61l5.61,5.61
		c3.03,3.15,8.04,3.26,11.2,0.23c3.15-3.03,3.26-8.04,0.23-11.2c-0.07-0.08-0.15-0.15-0.23-0.23L185.09,123.41z"/>
</g>
</svg>
