<svg xmlns="http://www.w3.org/2000/svg" width="32" height="32" viewBox="0 0 32 32"><path data-name="Path 684" d="M27.25 3.75h-4.688v-.937A2.816 2.816 0 0019.75 0 4.683 4.683 0 0016 1.878 4.683 4.683 0 0012.25 0a2.816 2.816 0 00-2.812 2.813v.937H4.75a.938.938 0 00-.938.938v3.75a.938.938 0 00.938.938h22.5a.938.938 0 00.938-.937V4.688a.938.938 0 00-.938-.938zm-7.5-1.875a.939.939 0 01.938.938v.937h-3.59a2.817 2.817 0 012.652-1.875zm-2.812 3.75V7.5h-1.876V5.625zm-5.626-2.812a.939.939 0 01.938-.937 2.817 2.817 0 012.651 1.874h-3.589zM5.687 5.625h7.5V7.5h-7.5zM26.312 7.5h-7.5V5.625h7.5z" fill="#ff2060"/><circle data-name="Ellipse 48" cx=".938" cy=".938" r=".938" transform="translate(13.188 11.25)" fill="#ff6047"/><circle data-name="Ellipse 49" cx=".938" cy=".938" r=".938" transform="translate(0 13.125)" fill="#ff6047"/><path data-name="Path 685" d="M27.25 13.125a6.572 6.572 0 00-6.5 5.625h-1.937v-2.812a.938.938 0 00-1.875 0v2.813h-1.875v-2.812a.938.938 0 00-1.875 0v2.813h-1.942a6.572 6.572 0 00-6.5-5.625.938.938 0 000 1.875 4.7 4.7 0 014.593 3.75H6.625a.938.938 0 00-.937.938v11.375a.938.938 0 00.938.938h18.75a.938.938 0 00.938-.937V19.688a.938.938 0 00-.937-.937h-2.72a4.7 4.7 0 014.593-3.75.938.938 0 000-1.875zm-12.187 7.5h1.875v9.5h-1.875zm-7.5 0h5.625v9.5H7.563zm16.875 9.5h-5.625v-9.5h5.625z" fill="#ff6047"/><circle data-name="Ellipse 50" cx=".938" cy=".938" r=".938" transform="translate(30.125 13.125)" fill="#ff6047"/><circle data-name="Ellipse 51" cx=".938" cy=".938" r=".938" transform="translate(16.938 11.25)" fill="#ff6047"/></svg>