<svg xmlns="http://www.w3.org/2000/svg" width="30" height="30" viewBox="0 0 30 30"><path data-name="Path 112" d="M29.983 6.48a.906.906 0 00-.038-.186.945.945 0 00-.071-.174.693.693 0 00-.032-.079L26.092.416A.942.942 0 0025.313 0H4.687a.94.94 0 00-.78.418L.158 6.043a.576.576 0 00-.032.079.945.945 0 00-.072.178.906.906 0 00-.037.186.51.51 0 00-.017.076v21.563A1.877 1.877 0 001.875 30h26.25A1.877 1.877 0 0030 28.125V6.562a.584.584 0 00-.017-.082zm-5.173-4.6l2.5 3.75h-8.7l-.626-3.75zm-10.892 0h2.162l.626 3.75h-3.412zm-.793 5.62h3.75v3.388l-1.575-.529a.969.969 0 00-.592 0l-1.579.529zM5.19 1.875h6.829l-.626 3.75h-8.7zm22.935 27.188v-.937H1.875V7.5h9.375v4.688a.93.93 0 00.39.759.952.952 0 00.844.131l2.516-.84 2.516.838a.952.952 0 00.3.049.941.941 0 00.938-.937V7.5h9.375v20.625z"/></svg>