<svg data-name="calendar (1)" xmlns="http://www.w3.org/2000/svg" width="30" height="30" viewBox="0 0 30 30"><g data-name="Group 398"><g data-name="Group 397"><path data-name="Path 675" d="M28.828 20.625A1.172 1.172 0 0030 19.453V7.031a4.693 4.693 0 00-4.687-4.687h-1.524V1.172a1.172 1.172 0 00-2.344 0v1.172h-5.332V1.172a1.172 1.172 0 00-2.344 0v1.172H8.5V1.172a1.172 1.172 0 00-2.344 0v1.172H4.688A4.693 4.693 0 000 7.031v18.282A4.693 4.693 0 004.688 30h20.625A4.693 4.693 0 0030 25.313a1.172 1.172 0 00-2.344 0 2.346 2.346 0 01-2.344 2.344H4.688a2.346 2.346 0 01-2.344-2.344V7.031a2.346 2.346 0 012.344-2.343h1.464v1.171a1.172 1.172 0 002.344 0V4.688h5.274v1.171a1.172 1.172 0 002.344 0V4.688h5.332v1.171a1.172 1.172 0 002.344 0V4.688h1.523a2.346 2.346 0 012.344 2.344v12.421a1.172 1.172 0 001.171 1.172z" fill="#ff6047"/><path data-name="Path 676" d="M20.197 12.267l-5.776 8.068a.669.669 0 01-.964.05l-3.739-3.591a1.172 1.172 0 00-1.623 1.691l3.743 3.594a3.022 3.022 0 002.079.831q.1 0 .2-.007a3.021 3.021 0 002.148-1.119l.039-.052 5.8-8.1a1.172 1.172 0 10-1.906-1.364z" fill="#ff2060"/></g></g></svg>