<svg xmlns="http://www.w3.org/2000/svg" width="14" height="16" viewBox="0 0 14 16"><path data-name="Icon awesome-calendar-alt" d="M0 14.5A1.5 1.5 0 001.5 16h11a1.5 1.5 0 001.5-1.5V6H0zm10-6.125A.376.376 0 0110.375 8h1.25a.376.376 0 01.375.375v1.25a.376.376 0 01-.375.375h-1.25A.376.376 0 0110 9.625zm0 4a.376.376 0 01.375-.375h1.25a.376.376 0 01.375.375v1.25a.376.376 0 01-.375.375h-1.25a.376.376 0 01-.375-.375zm-4-4A.376.376 0 016.375 8h1.25A.376.376 0 018 8.375v1.25a.376.376 0 01-.375.375h-1.25A.376.376 0 016 9.625zm0 4A.376.376 0 016.375 12h1.25a.376.376 0 01.375.375v1.25a.376.376 0 01-.375.375h-1.25A.376.376 0 016 13.625zm-4-4A.376.376 0 012.375 8h1.25A.376.376 0 014 8.375v1.25a.376.376 0 01-.375.375h-1.25A.376.376 0 012 9.625zm0 4A.376.376 0 012.375 12h1.25a.376.376 0 01.375.375v1.25a.376.376 0 01-.375.375h-1.25A.376.376 0 012 13.625zM12.5 2H11V.5a.5.5 0 00-.5-.5h-1a.5.5 0 00-.5.5V2H5V.5a.5.5 0 00-.5-.5h-1a.5.5 0 00-.5.5V2H1.5A1.5 1.5 0 000 3.5V5h14V3.5A1.5 1.5 0 0012.5 2z"/></svg>