<svg xmlns="http://www.w3.org/2000/svg" width="34" height="34" viewBox="0 0 34 34"><g data-name="Group 115"><g data-name="Group 114"><circle data-name="Ellipse 28" cx="1.328" cy="1.328" r="1.328" transform="translate(24.305 12.617)" fill="#ff6047"/><path data-name="Path 644" d="M28.688 2.656h-1.727V1.328a1.328 1.328 0 00-2.656 0v1.328h-6.043V1.328a1.328 1.328 0 00-2.656 0v1.328H9.629V1.328a1.328 1.328 0 00-2.656 0v1.328h-1.66A5.319 5.319 0 000 7.969v20.719A5.319 5.319 0 005.313 34h10.16a1.328 1.328 0 000-2.656H5.313a2.659 2.659 0 01-2.656-2.656V7.969a2.659 2.659 0 012.656-2.656h1.66v1.328a1.328 1.328 0 002.656 0V5.313h5.977v1.328a1.328 1.328 0 002.656 0V5.313H24.3v1.328a1.328 1.328 0 002.656 0V5.313h1.727a2.659 2.659 0 012.656 2.656v7.57a1.328 1.328 0 002.656 0v-7.57a5.319 5.319 0 00-5.307-5.313z" fill="#ff6047"/><path data-name="Path 645" d="M25.965 17.93A8.035 8.035 0 1034 25.965a8.044 8.044 0 00-8.035-8.035zm0 13.414a5.379 5.379 0 115.379-5.379 5.385 5.385 0 01-5.379 5.379z" fill="#ff2060"/><path data-name="Path 646" d="M27.891 24.637h-.6v-1.395a1.328 1.328 0 00-2.656 0v2.723a1.328 1.328 0 001.328 1.328h1.926a1.328 1.328 0 000-2.656z" fill="#ff2060"/><circle data-name="Ellipse 29" cx="1.328" cy="1.328" r="1.328" transform="translate(18.527 12.617)" fill="#ff6047"/><circle data-name="Ellipse 30" cx="1.328" cy="1.328" r="1.328" transform="translate(12.75 18.395)" fill="#ff6047"/><circle data-name="Ellipse 31" cx="1.328" cy="1.328" r="1.328" transform="translate(6.973 12.617)" fill="#ff6047"/><circle data-name="Ellipse 32" cx="1.328" cy="1.328" r="1.328" transform="translate(6.973 18.395)" fill="#ff6047"/><circle data-name="Ellipse 33" cx="1.328" cy="1.328" r="1.328" transform="translate(6.973 24.172)" fill="#ff6047"/><circle data-name="Ellipse 34" cx="1.328" cy="1.328" r="1.328" transform="translate(12.75 24.172)" fill="#ff6047"/><circle data-name="Ellipse 35" cx="1.328" cy="1.328" r="1.328" transform="translate(12.75 12.617)" fill="#ff6047"/></g></g></svg>