<svg xmlns="http://www.w3.org/2000/svg" width="30" height="19.57" viewBox="0 0 30 19.57"><g data-name="credit-card (2)"><g data-name="Group 686"><path data-name="Path 720" d="M27.363 0H2.637A2.64 2.64 0 000 2.637v14.3a2.64 2.64 0 002.637 2.637h24.726A2.64 2.64 0 0030 16.934v-14.3A2.64 2.64 0 0027.363 0zm.879 16.934a.88.88 0 01-.879.879H2.637a.88.88 0 01-.879-.879V6.5h26.484zm0-12.187H1.758v-2.11a.88.88 0 01.879-.879h24.726a.88.88 0 01.879.879z" fill="#ff6047"/></g><g data-name="Group 687"><path data-name="Path 721" d="M5.625 14.883h7.5a.879.879 0 000-1.758h-7.5a.879.879 0 000 1.758z" fill="#ff2060"/></g><g data-name="Group 688"><path data-name="Path 722" d="M5.625 11.133h7.5a.879.879 0 000-1.758h-7.5a.879.879 0 000 1.758z" fill="#ff2060"/></g><g data-name="Group 689"><path data-name="Path 723" d="M19.688 14.883h5.621a.879.879 0 00.879-.879v-3.75a.879.879 0 00-.879-.879h-5.625a.879.879 0 00-.879.879v3.75a.879.879 0 00.883.879zm.879-3.75h3.867v1.992h-3.867z" fill="#ff2060"/></g></g></svg>