<svg data-name="Group 35" xmlns="http://www.w3.org/2000/svg" width="15.085" height="20" viewBox="0 0 15.085 20"><path data-name="Path 571" d="M14.022 6.3a1.988 1.988 0 00-.562-1.244 1.725 1.725 0 00-1.244-.522h-1.063v-.923a3.526 3.526 0 00-1.063-2.548A3.6 3.6 0 007.543 0a3.526 3.526 0 00-2.548 1.063 3.526 3.526 0 00-1.063 2.548v.923H2.869a1.725 1.725 0 00-1.244.522A1.988 1.988 0 001.063 6.3L0 18.175v.14a1.593 1.593 0 00.5 1.163A1.951 1.951 0 001.625 20H13.44a1.95 1.95 0 001.143-.522 1.6 1.6 0 00.5-1.184v-.14zM5.035 3.611a2.528 2.528 0 015.055 0v.923H5.035zm8.927 14.7a.505.505 0 01-.181.4.829.829 0 01-.461.221H1.725a.77.77 0 01-.461-.221.505.505 0 01-.181-.4v-.06L2.146 6.4a.92.92 0 01.261-.562.653.653 0 01.461-.2h1.063v2.446a.542.542 0 101.083 0V5.637h5.016v2.447a.542.542 0 101.083 0V5.637h1.063a.653.653 0 01.461.2.92.92 0 01.263.563l1.063 11.876z" fill="#ececec"/></svg>