<svg xmlns="http://www.w3.org/2000/svg" width="32" height="31.62" viewBox="0 0 32 31.62"><g data-name="Group 400"><g data-name="Group 399"><path data-name="Path 680" d="M29.998 8h2V0h-4v2h2z" fill="#ff6047"/><path data-name="Path 681" d="M2 2h20V0H0v23h15v-2H2z" fill="#ff6047"/><path data-name="Path 682" d="M31.137 13.806q-.077-.082-.159-.159a1.216 1.216 0 01-.38-.923 3.221 3.221 0 00-.939-2.381 3.275 3.275 0 00-2.381-.94 1.231 1.231 0 01-.928-.385 3.215 3.215 0 00-4.544-.156q-.081.075-.156.156a1.162 1.162 0 01-.927.385 3.214 3.214 0 00-3.321 3.1v.217a1.217 1.217 0 01-.384.928 3.213 3.213 0 00-.159 4.541q.077.082.159.159a1.216 1.216 0 01.384.927 3.221 3.221 0 00.939 2.381 3.062 3.062 0 00.657.486v9.475l5-2.5 5 2.5v-9.476a3.116 3.116 0 00.657-.489 3.22 3.22 0 00.939-2.38 1.217 1.217 0 01.384-.928 3.213 3.213 0 00.159-4.538zM26.998 28.38l-3-1.5-3 1.5v-5.761a1.214 1.214 0 01.652.36 3.215 3.215 0 004.544.156q.081-.075.156-.156a1.161 1.161 0 01.648-.335zm2.675-11.552l-.058.058a3.211 3.211 0 00-1.015 2.457 1.2 1.2 0 01-.355.9 1.15 1.15 0 01-.9.355 3.2 3.2 0 00-2.456 1.018 1.242 1.242 0 01-1.756.018l-.018-.018a3.213 3.213 0 00-2.348-1.02h-.109a1.214 1.214 0 01-1.258-1.168v-.085a3.211 3.211 0 00-1.017-2.456 1.214 1.214 0 01-.058-1.716q.028-.03.058-.058a3.211 3.211 0 001.017-2.457 1.214 1.214 0 011.255-1.255 3.3 3.3 0 002.456-1.018 1.242 1.242 0 011.756-.018l.018.018a3.283 3.283 0 002.459 1.017 1.214 1.214 0 011.256 1.17v.087a3.211 3.211 0 001.017 2.456 1.214 1.214 0 01.056 1.714z" fill="#ff2060"/><path data-name="Path 683" d="M23.999 11.999a4 4 0 104 4 4 4 0 00-4-4zm0 6a2 2 0 112-2 2 2 0 01-2 2z" fill="#ff2060"/><path data-name="Rectangle 126" fill="#ff6047" d="M9.999 4h11.999v2H9.999z"/><path data-name="Rectangle 127" fill="#ff6047" d="M4 8.999h11.999v2H4z"/><path data-name="Rectangle 128" fill="#ff6047" d="M4 12.999h9.999v2H4z"/><path data-name="Rectangle 129" fill="#ff6047" d="M11.999 16.999h2v2h-2z"/><path data-name="Rectangle 130" fill="#ff6047" d="M4 16.999h6v2H4z"/><path data-name="Rectangle 131" fill="#ff6047" d="M23.999 0h2v2h-2z"/></g></g></svg>