<svg xmlns="http://www.w3.org/2000/svg" width="120" height="120" viewBox="0 0 120 120"><defs><linearGradient y1=".523" x2="1" y2=".5" gradientUnits="objectBoundingBox"><stop offset="0" stop-color="#ff6047"/><stop offset="1" stop-color="#ff2060"/></linearGradient></defs><g data-name="Group 487"><g data-name="Group 486"><path data-name="Path 115" d="M86.035 43.965a5 5 0 00-7.07 0L57.499 65.428l-8.965-8.962a5 5 0 00-7.07 7.07l12.5 12.5a5 5 0 007.07 0l25-25a5 5 0 00.001-7.071z"/></g></g><g data-name="Group 489"><g data-name="Group 488"><path data-name="Path 116" d="M115 55a5 5 0 00-5 5 50 50 0 11-14.518-35.23 5 5 0 107.095-7.045A60 60 0 10120 60a5 5 0 00-5-5z"/></g></g></svg>