<svg xmlns="http://www.w3.org/2000/svg" width="34.141" height="30.006" viewBox="0 0 34.141 30.006"><path data-name="Path 111" d="M33.14 0H9.069a1 1 0 00-1 1v13.069A6.005 6.005 0 004.591 16h-.523v-1a1 1 0 00-1-1H1a1 1 0 000 2h1.067v12H1a1 1 0 000 2h2.067a1 1 0 001-1v-1h.845c6.379 2.019 6.138 2 6.424 2h13.736a3 3 0 002.829-4h5.24a1 1 0 001-1V1a1 1 0 00-1.001-1zM19.07 2h4v5h-4zm7 25.005a1 1 0 01-1 1H11.491c-6.379-2.019-6.138-2-6.424-2h-1V18h1a1 1 0 00.8-.407 3.975 3.975 0 016.392 0 1 1 0 00.805.407h5a1 1 0 010 2h-6a1 1 0 00-1 1 5.007 5.007 0 005 5h9a1 1 0 011.008 1.006zm6.068-3H16.07a3.006 3.006 0 01-2.829-2h4.83a3 3 0 100-6h-4.525a6.005 6.005 0 00-3.477-1.935V2h7v6a1 1 0 001 1h6a1 1 0 001-1V2h7.071z"/></svg>