<svg xmlns="http://www.w3.org/2000/svg" width="24" height="18" viewBox="0 0 24 18"><path d="M20.243 10.099H7.496a1.1 1.1 0 110-2.2h12.747L18.82 6.477a1.1 1.1 0 011.556-1.556l3.3 3.3c.026.025.05.052.072.08l.016.021a.988.988 0 01.048.065l.012.02c.015.024.03.047.043.072l.007.015c.014.027.027.054.039.082v.011c.012.03.023.06.032.091v.012c.009.03.017.061.023.092v.028c0 .026.009.052.012.078a1.085 1.085 0 010 .22c0 .027-.007.053-.012.079v.027a.971.971 0 01-.023.093v.011c-.009.031-.021.061-.033.091v.01a1.254 1.254 0 01-.039.083l-.007.015a.785.785 0 01-.044.073l-.012.02c-.015.023-.032.044-.049.066l-.016.021a1.368 1.368 0 01-.072.08l-3.3 3.3a1.1 1.1 0 01-1.556-1.556z" fill="#888"/><path d="M8.889.001a8.854 8.854 0 017.382 3.985 1.109 1.109 0 01-.3 1.527 1.078 1.078 0 01-1.508-.3 6.69 6.69 0 00-5.579-3.012 6.8 6.8 0 000 13.6 6.692 6.692 0 005.569-3 1.078 1.078 0 011.509-.3 1.109 1.109 0 01.292 1.528 8.856 8.856 0 01-7.37 3.967 9 9 0 010-18z" fill="#888"/></svg>