<svg xmlns="http://www.w3.org/2000/svg" width="20" height="20" viewBox="0 0 20 20"><g data-name="Group 608"><g data-name="Group 607" fill="#fff"><path data-name="Path 171" d="M8.086 7.812a.781.781 0 00-.786-.781H4.18a.781.781 0 00-.781.781v1.4H0v1.563h3.4v1.333a.781.781 0 00.781.781H7.3a.781.781 0 00.781-.781v-1.333H20V9.213H8.086zm-1.563 3.519H4.961V8.597h1.562z"/><path data-name="Path 172" d="M16.836 14.922a.781.781 0 00-.781-.781H12.93a.781.781 0 00-.781.781v1.367H0v1.563h12.148v1.367a.781.781 0 00.781.781h3.125a.781.781 0 00.781-.781v-1.367H20V16.29h-3.164zm-1.563 3.519h-1.562v-2.734h1.563z"/><path data-name="Path 173" d="M16.914 2.188V.781A.781.781 0 0016.133 0h-3.125a.781.781 0 00-.781.781v1.407H0V3.75h12.227v1.328a.781.781 0 00.781.781h3.125a.781.781 0 00.781-.781V3.75H20V2.188zM15.352 4.3h-1.563V1.563h1.563z"/></g></g></svg>