<svg data-name="fireworks (1)" xmlns="http://www.w3.org/2000/svg" width="40" height="40" viewBox="0 0 40 40"><g data-name="Group 117"><g data-name="Group 116"><circle data-name="Ellipse 36" cx="1.172" cy="1.172" r="1.172" fill="#ff6047" transform="translate(18.828)"/></g></g><g data-name="Group 119"><g data-name="Group 118"><path data-name="Path 658" d="M26.007 17.529l-3.425-.5-1.532-3.1a1.173 1.173 0 00-2.1 0l-1.532 3.1-3.425.5a1.173 1.173 0 00-.649 2l2.478 2.416-.585 3.411a1.173 1.173 0 001.7 1.235L20 24.981l3.063 1.61a1.173 1.173 0 001.7-1.235l-.585-3.411 2.478-2.416a1.173 1.173 0 00-.649-2zm-3.906 3.166a1.172 1.172 0 00-.337 1.037l.288 1.678-1.507-.792a1.172 1.172 0 00-1.091 0l-1.507.792.288-1.678a1.172 1.172 0 00-.337-1.037l-1.219-1.188 1.685-.245a1.172 1.172 0 00.882-.641l.753-1.527.753 1.527a1.172 1.172 0 00.882.641l1.685.245z" fill="#ff6047"/></g></g><g data-name="Group 121"><g data-name="Group 120"><circle data-name="Ellipse 37" cx="1.172" cy="1.172" r="1.172" fill="#ff6047" transform="translate(18.828 37.656)"/></g></g><g data-name="Group 123"><g data-name="Group 122"><path data-name="Path 659" d="M20 28.203a1.172 1.172 0 00-1.172 1.172v5.859a1.172 1.172 0 002.344 0v-5.859A1.172 1.172 0 0020 28.203z" fill="#ff6047"/></g></g><g data-name="Group 125"><g data-name="Group 124"><path data-name="Path 660" d="M20 3.594a1.172 1.172 0 00-1.172 1.172v5.859a1.172 1.172 0 002.344 0V4.766A1.172 1.172 0 0020 3.594z" fill="#ff6047"/></g></g><g data-name="Group 127"><g data-name="Group 126"><circle data-name="Ellipse 38" cx="1.172" cy="1.172" r="1.172" fill="#ff6047" transform="translate(34.188 8.073)"/></g></g><g data-name="Group 129"><g data-name="Group 128"><circle data-name="Ellipse 39" cx="1.172" cy="1.172" r="1.172" fill="#ff6047" transform="translate(3.469 29.583)"/></g></g><g data-name="Group 131"><g data-name="Group 130"><path data-name="Path 661" d="M13.281 24.705a1.172 1.172 0 00-1.632-.288l-4.8 3.361a1.172 1.172 0 101.344 1.92l4.8-3.361a1.172 1.172 0 00.288-1.632z" fill="#ff6047"/></g></g><g data-name="Group 133"><g data-name="Group 132"><path data-name="Path 662" d="M33.44 10.59a1.172 1.172 0 00-1.632-.288l-4.8 3.361a1.172 1.172 0 001.344 1.92l4.8-3.361a1.172 1.172 0 00.288-1.632z" fill="#ff6047"/></g></g><g data-name="Group 135"><g data-name="Group 134"><circle data-name="Ellipse 40" cx="1.172" cy="1.172" r="1.172" fill="#ff6047" transform="translate(3.469 8.073)"/></g></g><g data-name="Group 137"><g data-name="Group 136"><circle data-name="Ellipse 41" cx="1.172" cy="1.172" r="1.172" fill="#ff6047" transform="translate(34.188 29.583)"/></g></g><g data-name="Group 139"><g data-name="Group 138"><path data-name="Path 663" d="M33.151 27.777l-4.8-3.361a1.172 1.172 0 00-1.344 1.92l4.8 3.361a1.172 1.172 0 101.344-1.92z" fill="#ff6047"/></g></g><g data-name="Group 141"><g data-name="Group 140"><path data-name="Path 664" d="M12.993 13.663l-4.8-3.361a1.172 1.172 0 00-1.344 1.92l4.8 3.361a1.172 1.172 0 101.344-1.92z" fill="#ff6047"/></g></g><g data-name="Group 143"><g data-name="Group 142"><path data-name="Path 665" d="M36.484 16.484a3.521 3.521 0 00-3.314 2.344h-3.8a1.172 1.172 0 000 2.344h3.8a3.515 3.515 0 103.314-4.688zm0 4.688A1.172 1.172 0 1137.656 20a1.173 1.173 0 01-1.172 1.172z" fill="#ff2060"/></g></g><g data-name="Group 145"><g data-name="Group 144"><path data-name="Path 666" d="M10.625 18.828H6.83a3.516 3.516 0 100 2.344h3.8a1.172 1.172 0 000-2.344zm-7.109 2.344A1.172 1.172 0 114.688 20a1.173 1.173 0 01-1.172 1.172z" fill="#ff2060"/></g></g><g data-name="Group 147"><g data-name="Group 146"><path data-name="Path 667" d="M29.353 2.41a3.517 3.517 0 00-4.242 5.482l-1.744 3.28a1.172 1.172 0 002.069 1.1l1.746-3.283a3.515 3.515 0 002.171-6.58zm-.616 3.654a1.172 1.172 0 11-.485-1.585 1.173 1.173 0 01.485 1.585z" fill="#ff2060"/></g></g><g data-name="Group 149"><g data-name="Group 148"><path data-name="Path 668" d="M16.149 27.243a1.172 1.172 0 00-1.585.484l-1.745 3.282a3.513 3.513 0 102.07 1.1l1.744-3.28a1.172 1.172 0 00-.484-1.586zm-2.816 7.793a1.172 1.172 0 11-.484-1.585 1.171 1.171 0 01.484 1.585z" fill="#ff2060"/></g></g><g data-name="Group 151"><g data-name="Group 150"><path data-name="Path 669" d="M16.633 11.172l-1.744-3.28a3.52 3.52 0 10-2.071 1.1l1.748 3.281a1.172 1.172 0 102.069-1.1zm-3.785-4.623a1.172 1.172 0 11.485-1.585 1.173 1.173 0 01-.485 1.585z" fill="#ff2060"/></g></g><g data-name="Group 153"><g data-name="Group 152"><path data-name="Path 670" d="M30.807 32.836a3.521 3.521 0 00-3.625-1.826l-1.745-3.282a1.172 1.172 0 00-2.069 1.1l1.744 3.28a3.516 3.516 0 105.7.727zm-2.554 2.685a1.172 1.172 0 11.485-1.585 1.171 1.171 0 01-.485 1.585z" fill="#ff2060"/></g></g></svg>