<svg xmlns="http://www.w3.org/2000/svg" width="32" height="32" viewBox="0 0 32 32"><path data-name="Path 613" d="M13.198 5.66l-.327 1.97a.938.938 0 001.357.986L16 7.696l1.772.92a.938.938 0 001.357-.986l-.327-1.97 1.423-1.4a.938.938 0 00-.518-1.595l-1.968-.3-.895-1.84a.937.937 0 00-1.686 0l-.895 1.84-1.968.3a.938.938 0 00-.518 1.6zm1.831-1.512a.937.937 0 00.7-.517l.268-.55.268.55a.938.938 0 00.7.517l.6.091-.434.427a.937.937 0 00-.267.822l.1.6-.54-.28a.937.937 0 00-.864 0l-.54.28.1-.6a.937.937 0 00-.267-.822l-.434-.427z" fill="#ff2060"/><path data-name="Path 614" d="M24.449 13.163l-.327 1.97a.938.938 0 001.357.986l1.772-.92 1.772.92a.938.938 0 001.357-.986l-.327-1.97 1.423-1.4a.938.938 0 00-.518-1.6l-1.974-.3-.893-1.786a.938.938 0 00-1.677 0l-.893 1.786-1.974.3a.938.938 0 00-.518 1.595zm1.831-1.512a.937.937 0 00.7-.508l.272-.544.272.544a.938.938 0 00.7.508l.6.091-.434.427a.937.937 0 00-.267.822l.1.6-.54-.28a.937.937 0 00-.864 0l-.54.28.1-.6a.937.937 0 00-.267-.822l-.434-.427z" fill="#ff2060"/><path data-name="Path 615" d="M19.75 30.125a.938.938 0 00.938-.937 19.877 19.877 0 012.707-10.04.938.938 0 00-1.618-.947 21.754 21.754 0 00-2.965 10.987.938.938 0 00.938.937z" fill="#ff6047"/><path data-name="Path 616" d="M1.949 13.163l-.327 1.97a.937.937 0 001.357.986l1.772-.92 1.772.92a.937.937 0 001.357-.986l-.327-1.97 1.423-1.4a.938.938 0 00-.518-1.6l-1.974-.3-.893-1.786a.938.938 0 00-1.677 0l-.895 1.786-1.975.3a.938.938 0 00-.518 1.595zm1.831-1.512a.937.937 0 00.7-.508l.272-.544.272.544a.938.938 0 00.7.508l.6.091-.434.427a.937.937 0 00-.267.822l.1.6-.54-.28a.937.937 0 00-.864 0l-.54.28.1-.6a.937.937 0 00-.269-.828l-.434-.427z" fill="#ff2060"/><path data-name="Path 617" d="M8.606 19.148a19.877 19.877 0 012.706 10.04.938.938 0 001.875 0 21.754 21.754 0 00-2.964-10.987.938.938 0 10-1.618.947z" fill="#ff6047"/><path data-name="Path 618" d="M16 28.25a.938.938 0 00.938-.937V12.25a.938.938 0 00-1.875 0v15.062a.938.938 0 00.937.938z" fill="#ff6047"/><circle data-name="Ellipse 20" cx=".938" cy=".938" r=".938" transform="translate(15.063 30.125)" fill="#ff6047"/><circle data-name="Ellipse 21" cx=".938" cy=".938" r=".938" transform="translate(30.125 22.563)" fill="#ff6047"/><path data-name="Path 619" d="M24.437 31.062a5.22 5.22 0 012.836-4.651l.4-.2a.938.938 0 10-.839-1.677l-.4.2a7.109 7.109 0 00-3.872 6.328.938.938 0 001.875 0z" fill="#ff6047"/><circle data-name="Ellipse 22" cx=".938" cy=".938" r=".938" transform="translate(0 22.563)" fill="#ff6047"/><path data-name="Path 620" d="M4.331 26.213l.4.2a5.22 5.22 0 012.836 4.651.938.938 0 001.875 0 7.109 7.109 0 00-3.872-6.328l-.4-.2a.938.938 0 10-.839 1.677z" fill="#ff6047"/></svg>