<svg xmlns="http://www.w3.org/2000/svg" width="20" height="17.578" viewBox="0 0 20 17.578"><path data-name="Path 570" d="M14.688 0A5.29 5.29 0 0010 3.165 5.29 5.29 0 005.313 0 5.452 5.452 0 000 5.723c0 4.158 3.968 6.769 9.614 11.71a.586.586 0 00.772 0C16.027 12.5 20 9.882 20 5.723A5.452 5.452 0 0014.688 0zM10 16.215C4.8 11.7 1.172 9.189 1.172 5.723a4.264 4.264 0 014.141-4.551c2.275 0 3.686 2.107 4.123 3.672a.586.586 0 001.13 0C11 3.3 12.39 1.172 14.688 1.172a4.264 4.264 0 014.141 4.551C18.828 9.191 15.194 11.7 10 16.215z" fill="#ececec"/></svg>