<svg xmlns="http://www.w3.org/2000/svg" width="32" height="32" viewBox="0 0 32 32"><path data-name="Path 677" d="M32 21.656a10.367 10.367 0 00-7.575-9.967 12.218 12.218 0 10-22.731 6.74L.045 24.392l5.963-1.649a12.173 12.173 0 005.68 1.682 10.347 10.347 0 0015.231 6.137l5.035 1.393-1.393-5.035A10.307 10.307 0 0032 21.656zm-25.7-.94l-3.57.988.988-3.57-.218-.353a10.34 10.34 0 113.159 3.159zm22.962 8.55l-2.649-.733-.354.23a8.472 8.472 0 01-12.636-4.407 12.242 12.242 0 0010.733-10.729 8.472 8.472 0 014.407 12.636l-.23.354zm0 0" fill="#ff6047"/><path data-name="Path 678" d="M11.281 16.937h1.875v1.875h-1.875zm0 0" fill="#ff2060"/><path data-name="Path 679" d="M14.094 9.375a1.856 1.856 0 01-.61 1.384l-2.2 2.016v2.288h1.875V13.6l1.593-1.458a3.75 3.75 0 10-6.283-2.767h1.875a1.875 1.875 0 013.75 0zm0 0" fill="#ff2060"/></svg>