<svg xmlns="http://www.w3.org/2000/svg" width="16" height="16" viewBox="0 0 16 16"><path d="M14.5 11c0 1.93-1.57 3.5-3.5 3.5H5c-1.93 0-3.5-1.57-3.5-3.5V5c0-1.93 1.57-3.5 3.5-3.5h6c1.93 0 3.5 1.57 3.5 3.5zM11 0H5a5 5 0 00-5 5v6a5 5 0 005 5h6a5 5 0 005-5V5a5 5 0 00-5-5z"/><path d="M8 10.508A2.512 2.512 0 015.492 8 2.51 2.51 0 018 5.492 2.51 2.51 0 0110.508 8 2.512 2.512 0 018 10.508zm0-6.52a4.013 4.013 0 100 8.025 4.013 4.013 0 000-8.026zM11.764 3.701a.535.535 0 111.07 0 .535.535 0 01-1.07 0z"/></svg>