<svg data-name="034---Fireworks" xmlns="http://www.w3.org/2000/svg" width="30" height="30.524" viewBox="0 0 30 30.524"><path d="M.315 30.155l-.073-.087A1.035 1.035 0 01.37 28.61l9.4-7.976 1.4 1.672-9.4 7.976a1.034 1.034 0 01-1.455-.127z" fill="#b19046"/><path data-name="Shape" d="M4.01 20.744a3.628 3.628 0 01-3.345-1.862 6.687 6.687 0 01.248-6.255 11.4 11.4 0 013.569-3.31c1.552-1.039 2.867-2.89 1.888-4.95a.517.517 0 01.935-.44c1.039 2.191.155 4.646-2.249 6.254a10.535 10.535 0 00-3.259 3 5.637 5.637 0 00-.235 5.195A2.641 2.641 0 004.1 19.709a2.622 2.622 0 002.606-2.146.517.517 0 011.027.123 3.626 3.626 0 01-3.612 3.057H4.01z" fill="#bdc3c7"/><path data-name="Shape" d="M25.862 4.662l-7.019-.812-2.55 2.141-2.674 2.24-2.209 1.857h-.005l-2.664 2.24-2.348 1.971-.967.812a1.034 1.034 0 00-.129 1.459l1.428 1.7 4.257 5.07a1.034 1.034 0 001.459.129l1.34-1.122 2.669-2.24 2.343-1.971 2.674-2.24 2.215-1.856 2.178-1.831z" fill="#f0c419"/><path data-name="Shape" d="M16.448 20.107l-2.666 2.239-7.058-4.078-1.428-1.7a1.035 1.035 0 01.129-1.459l.967-.812zM21.465 15.898l-2.674 2.24-10.05-5.81 2.664-2.24h.005zM25.857 12.208l-2.178 1.831-10.06-5.808 2.67-2.24 8.431 4.872z" fill="#ff5364"/><path data-name="Shape" d="M27.815 13.153l2.176-10.988a.546.546 0 00-.539-.642l-11.2.234a.545.545 0 00-.414.9l9.022 10.755a.546.546 0 00.955-.254z" fill="#c03a2b"/><g data-name="Group 6" fill="#f0c419"><path data-name="Shape" d="M4.503 1.71a.517.517 0 00-.731 0l-.366.366-.366-.366a.517.517 0 00-.731.731l.366.366-.366.366a.517.517 0 10.731.731l.366-.366.366.366a.517.517 0 00.731-.731l-.366-.366.366-.366a.517.517 0 000-.731zM8.794 2.504a.517.517 0 00.366-.883l-.366-.366.366-.366a.517.517 0 00-.731-.731l-.366.366-.366-.366a.517.517 0 10-.731.731l.366.366-.366.366a.517.517 0 10.731.731l.366-.366.366.366a.517.517 0 00.366.152zM10.773 6.945l.366-.366a.517.517 0 00-.731-.731l-.366.366-.366-.366a.517.517 0 00-.731.731l.366.366-.366.366a.517.517 0 10.731.731l.366-.366.366.366a.517.517 0 10.731-.731z"/></g></svg>