<svg xmlns="http://www.w3.org/2000/svg" width="50" height="44.92" viewBox="0 0 50 44.92"><g data-name="Group 692"><path data-name="Path 724" d="M49.608 19.79l-.977-1.691a.977.977 0 00-1.334-.357l-9.864 5.7H12.567l-9.864-5.7a.977.977 0 00-1.334.357L.393 19.79a2.933 2.933 0 001.072 4l9.864 5.7v12.5a2.933 2.933 0 002.93 2.93h21.483a2.933 2.933 0 002.93-2.93v-12.5l9.864-5.7a2.935 2.935 0 001.072-4zM24.569 42.965l12.15-12.15v5.05l-7.1 7.1zm12.15-14.912L21.807 42.965h-5.05l17.577-17.577h2.385zm-20.771-2.665l-2.665 2.665v-2.665zM2.441 22.101a.982.982 0 01-.357-1.334l.488-.846 8.757 5.056v2.255zM13.282 38.63l3.513-3.513a.977.977 0 00-1.381-1.381l-2.132 2.129v-5.05l5.428-5.427h5.05l-2.131 2.131A.977.977 0 1023.01 28.9l3.512-3.512h5.05l-17.548 17.55a.977.977 0 01-.742-.947zm22.46 4.338h-3.361l4.338-4.338v3.361a.978.978 0 01-.977.974zm12.27-21.46a.969.969 0 01-.453.594l-8.888 5.131v-2.255l8.757-5.056.488.846a.969.969 0 01.096.739z" fill="#ff6047"/><path data-name="Path 725" d="M20.487 8.288l-.283 2.161a1.933 1.933 0 00.165 1.207 1.953 1.953 0 002.61.9l2-.973 2.057.98a1.953 1.953 0 002.773-2.031l-.308-2.2 1.508-1.6a1.952 1.952 0 00-1.02-3.326l-2.19-.388-1.088-2a1.949 1.949 0 00-3.432.016l-1.046 1.963-2.2.408a1.95 1.95 0 00-1.094 3.279zM20.38 5.33l2.673-.5a.977.977 0 00.683-.5l1.262-2.375 1.31 2.41a.976.976 0 00.688.5l2.656.469-.042.042-1.851 1.953a.976.976 0 00-.259.807l.375 2.668-2.482-1.182a.976.976 0 00-.847 0l-2.421 1.18.012-.07.348-2.656a.977.977 0 00-.265-.8L20.347 5.34z" fill="#ff2060"/><path data-name="Path 726" d="M24.076 15.396v4.526a.977.977 0 101.953 0v-4.526a.977.977 0 10-1.953 0z" fill="#ff2060"/><path data-name="Path 727" d="M12.255 12.441a.976.976 0 00.357 1.334 8.3 8.3 0 013.55 6.2.977.977 0 00.974.924h.054a.976.976 0 00.922-1.028 10.147 10.147 0 00-4.524-7.785.977.977 0 00-1.333.355z" fill="#ff2060"/><path data-name="Path 728" d="M3.564 10.166l2.024.786.786 2.022a1.777 1.777 0 003.314 0l.786-2.024 2.022-.786a1.777 1.777 0 000-3.314l-2.024-.786-.786-2.023a1.777 1.777 0 00-3.314 0l-.786 2.024-2.022.787a1.777 1.777 0 000 3.314zm3.131-2.437a.976.976 0 00.557-.557l.778-2 .778 2a.976.976 0 00.557.557l2 .778-2 .778a.977.977 0 00-.557.557l-.778 2-.778-2a.977.977 0 00-.557-.557l-2-.778z" fill="#ff2060"/><path data-name="Path 729" d="M32.809 20.897h.054a.977.977 0 00.974-.924 8.3 8.3 0 013.55-6.2.977.977 0 10-.977-1.691 10.147 10.147 0 00-4.524 7.785.977.977 0 00.923 1.03z" fill="#ff2060"/><path data-name="Path 730" d="M37.503 10.166l2.024.786.786 2.022a1.777 1.777 0 003.314 0l.786-2.024 2.022-.786a1.777 1.777 0 000-3.314l-2.024-.786-.785-2.022a1.777 1.777 0 00-3.314 0l-.786 2.024-2.022.786a1.777 1.777 0 000 3.314zm3.132-2.435a.976.976 0 00.557-.557l.778-2 .778 2a.976.976 0 00.557.557l2 .778-2 .778a.976.976 0 00-.557.557l-.778 2-.778-2a.976.976 0 00-.557-.557l-2-.778z" fill="#ff2060"/><path data-name="Path 731" d="M19.212 32.296a.977.977 0 100-1.953.977.977 0 000 1.953z" fill="#ff6047"/></g></svg>