<svg xmlns="http://www.w3.org/2000/svg" width="32" height="32" viewBox="0 0 32 32"><g data-name="Group 390"><g data-name="Group 389"><path data-name="Path 671" d="M31.86 15.508l-.005-.009-4.75-7.5a.938.938 0 00-.792-.436H5.688a.939.939 0 00-.792.436L.14 15.508l-.015.026a.937.937 0 00.146 1.128l15.063 15.063.007.007a.937.937 0 001.311 0l.007-.007 15.067-15.063a.938.938 0 00.134-1.154zm-7.239-6.07l-3.066 4.906-3.68-4.906zm-4.871 5.624h-7.5l3.75-5zm-5.625-5.625l-3.68 4.906-3.066-4.906zm-8.443.823l3 4.8H2.641zm-2.484 6.678h6.527l3.888 10.412zm12.8 11.446l-4.274-11.445h8.548zm2.388-1.034l3.888-10.412h6.524zm4.931-12.288l3-4.8 3.041 4.8z" fill="#ff6047"/></g></g><g data-name="Group 392"><g data-name="Group 391"><path data-name="Path 672" d="M16.001 0a.938.938 0 00-.939.938v3.75a.938.938 0 101.875 0V.938A.938.938 0 0016.001 0z" fill="#ff2060"/></g></g><g data-name="Group 394"><g data-name="Group 393"><path data-name="Path 673" d="M12.21 4.289L9.558 2.575A.938.938 0 008.54 4.15l2.652 1.714a.938.938 0 101.018-1.575z" fill="#ff2060"/></g></g><g data-name="Group 396"><g data-name="Group 395"><path data-name="Path 674" d="M23.738 2.852a.938.938 0 00-1.3-.278l-2.652 1.714a.938.938 0 101.018 1.575l2.652-1.714a.938.938 0 00.282-1.297z" fill="#ff2060"/></g></g></svg>