<svg xmlns="http://www.w3.org/2000/svg" width="24" height="29.538" viewBox="0 0 24 29.538"><g data-name="Group 113"><path d="M20.807 8.905c-1.02-1.44-1.826-2.577-1.826-3.944a1.2 1.2 0 00-1.212-1.154 1.317 1.317 0 00-.789.262 22.949 22.949 0 00-3 3.358c-1.063-1.489-1.513-3.415-1.513-6.273A1.258 1.258 0 0011.192 0a1.563 1.563 0 00-.728.179 26.894 26.894 0 00-5.892 5.485 22.6 22.6 0 00-3.17 5.22A16.881 16.881 0 000 17.522a12.022 12.022 0 0012 12.016 11.734 11.734 0 007.983-3.008 1.154 1.154 0 00-1.544-1.716A9.461 9.461 0 0112 27.231a9.712 9.712 0 01-9.692-9.709A16.639 16.639 0 016.375 7.1a26.584 26.584 0 013.859-3.893 10.29 10.29 0 003.049 6.914 1.154 1.154 0 001.758-.2 24.483 24.483 0 012.076-2.7 14.877 14.877 0 001.807 3.021 12.135 12.135 0 012.768 7.106v.02a10.884 10.884 0 01-.418 2.858 1.154 1.154 0 102.22.63A13.642 13.642 0 0024 17.481c0-4.07-1.77-6.568-3.193-8.576z" fill="#ff6047"/><path data-name="sale" d="M14.077 21.923a1.731 1.731 0 111.731 1.731 1.731 1.731 0 01-1.731-1.731zM7.458 23.39a1.154 1.154 0 001.624-.156L16.7 14a1.154 1.154 0 00-1.78-1.469L7.3 21.766a1.154 1.154 0 00.158 1.624zm2.465-9.544a1.731 1.731 0 10-1.731 1.731 1.731 1.731 0 001.731-1.731z" fill="#ff2060"/></g></svg>