<svg xmlns="http://www.w3.org/2000/svg" width="30" height="30" viewBox="0 0 30 30"><path data-name="Path 716" d="M11.927 20.216l4.143-12.43a.88.88 0 00-1.668-.556l-4.143 12.43a.88.88 0 101.668.556z" fill="#ff2060"/><path data-name="Path 717" d="M18.137 16.359a2.637 2.637 0 10-2.637-2.637 2.64 2.64 0 002.637 2.637zm0-3.516a.879.879 0 11-.879.879.88.88 0 01.879-.878z" fill="#ff2060"/><path data-name="Path 718" d="M8.193 11.083a2.637 2.637 0 102.637 2.637 2.64 2.64 0 00-2.637-2.637zm0 3.516a.879.879 0 11.879-.879.88.88 0 01-.879.882z" fill="#ff2060"/><path data-name="Path 719" d="M29.824 10.9L26.76 6.812l.12-.837a.879.879 0 00-.249-.746l-1.865-1.864L26.63 1.5A.879.879 0 0025.388.258l-1.865 1.864L21.659.258a.88.88 0 00-.746-.249l-8.7 1.243a.879.879 0 00-.5.249L.943 12.273a3.226 3.226 0 000 4.558l9.115 9.115a3.215 3.215 0 00.607.476v.356A3.226 3.226 0 0013.887 30h12.891A3.226 3.226 0 0030 26.778V11.426a.879.879 0 00-.176-.527zM2.186 15.588a1.466 1.466 0 010-2.072L12.751 2.951l7.976-1.139 1.553 1.553-1.243 1.243-.622-.622a.879.879 0 00-1.242 1.244l2.486 2.486A.879.879 0 0022.9 6.473l-.622-.622 1.243-1.243 1.554 1.554-1.139 7.976L13.372 24.7a1.465 1.465 0 01-2.072 0zm26.057 11.19a1.467 1.467 0 01-1.465 1.465H13.887a1.466 1.466 0 01-1.46-1.357 3.21 3.21 0 002.189-.94l10.771-10.773a.879.879 0 00.249-.5l.772-5.4 1.834 2.446z" fill="#ff6047"/></svg>