<svg xmlns="http://www.w3.org/2000/svg" width="17.5" height="20" viewBox="0 0 17.5 20"><path data-name="Icon awesome-trash-alt" d="M1.25 18.125A1.875 1.875 0 003.125 20h11.25a1.875 1.875 0 001.875-1.875V5h-15zm10.625-10a.625.625 0 011.25 0v8.75a.625.625 0 01-1.25 0zm-3.75 0a.625.625 0 011.25 0v8.75a.625.625 0 01-1.25 0zm-3.75 0a.625.625 0 011.25 0v8.75a.625.625 0 01-1.25 0zm12.5-6.875h-4.687L11.82.52a.937.937 0 00-.84-.52H6.516a.927.927 0 00-.836.52l-.367.73H.625A.625.625 0 000 1.875v1.25a.625.625 0 00.625.625h16.25a.625.625 0 00.625-.625v-1.25a.625.625 0 00-.625-.625z" fill="#201e29"/></svg>