<svg xmlns="http://www.w3.org/2000/svg" width="32" height="24.375" viewBox="0 0 32 24.375"><path data-name="Path 610" d="M14.125 15h-7.5a.938.938 0 000 1.875h7.5a.937.937 0 100-1.875z" fill="#ff2060"/><path data-name="Path 611" d="M7.42 9.745l-.377 2.2a.937.937 0 001.36.988l1.972-1.037 1.972 1.037a.937.937 0 001.36-.988l-.377-2.2 1.6-1.555a.938.938 0 00-.52-1.6l-2.2-.32-.986-2a.937.937 0 00-1.681 0l-.986 2-2.2.32a.938.938 0 00-.52 1.6zm1.886-1.69a.937.937 0 00.706-.513l.363-.736.363.736a.938.938 0 00.706.513l.813.118-.588.573a.938.938 0 00-.27.83l.139.809-.727-.382a.937.937 0 00-.872 0l-.727.382.139-.809a.938.938 0 00-.27-.83l-.588-.573z" fill="#ff2060"/><path data-name="Path 612" d="M30.445 12.706l-2.366-1.183-1.325-3.975a2.809 2.809 0 00-2.668-1.923H20.75V.937A.938.938 0 0019.813 0H.938A.938.938 0 000 .937v20.625a.938.938 0 00.938.938h3.036a2.812 2.812 0 005.3 0h13.51a2.812 2.812 0 005.3 0h2.974a.938.938 0 00.942-.938v-6.341a2.8 2.8 0 00-1.555-2.516zM24.086 7.5a.936.936 0 01.889.641l1.036 3.109H20.75V7.5zM1.875 18.75h.938a.938.938 0 000-1.875h-.938v-15h17v18.75h-9.6a2.812 2.812 0 00-5.3 0h-2.1zm4.75 3.75a.938.938 0 11.938-.937.939.939 0 01-.938.937zm18.813 0a.938.938 0 11.938-.937.939.939 0 01-.938.937zm2.651-1.875a2.812 2.812 0 00-5.3 0H20.75v-7.5h6.341l2.516 1.258a.932.932 0 01.518.839v1.654h-.937a.938.938 0 100 1.875h.938v1.875z" fill="#ff6047"/></svg>