<svg xmlns="http://www.w3.org/2000/svg" width="16.686" height="20" viewBox="0 0 16.686 20"><path data-name="Path 572" d="M8.217 9.634a4.661 4.661 0 003.406-1.411 4.661 4.661 0 001.411-3.406 4.662 4.662 0 00-1.411-3.406 4.816 4.816 0 00-6.812 0A4.661 4.661 0 003.4 4.817a4.661 4.661 0 001.411 3.406 4.663 4.663 0 003.406 1.411zM5.64 2.24a3.644 3.644 0 015.154 0 3.483 3.483 0 011.068 2.577 3.482 3.482 0 01-1.068 2.577 3.643 3.643 0 01-5.154 0 3.482 3.482 0 01-1.072-2.577A3.482 3.482 0 015.64 2.24zm0 0"/><path data-name="Path 573" d="M16.646 15.38a11.9 11.9 0 00-.162-1.264 9.957 9.957 0 00-.311-1.271 6.277 6.277 0 00-.522-1.185 4.467 4.467 0 00-.788-1.026 3.473 3.473 0 00-1.131-.711 3.91 3.91 0 00-1.444-.261 1.466 1.466 0 00-.783.332c-.235.153-.509.33-.816.526a4.673 4.673 0 01-1.055.465 4.1 4.1 0 01-2.581 0A4.659 4.659 0 016 10.519c-.3-.194-.578-.371-.816-.526a1.464 1.464 0 00-.783-.332 3.905 3.905 0 00-1.444.262 3.47 3.47 0 00-1.132.711 4.468 4.468 0 00-.787 1.026 6.288 6.288 0 00-.525 1.185 9.98 9.98 0 00-.311 1.27 11.817 11.817 0 00-.162 1.264c-.027.382-.04.779-.04 1.181a3.321 3.321 0 00.986 2.513A3.55 3.55 0 003.528 20h9.63a3.551 3.551 0 002.542-.927 3.32 3.32 0 00.986-2.513c0-.4-.014-.8-.04-1.181zm-1.754 2.845a2.391 2.391 0 01-1.734.6h-9.63a2.391 2.391 0 01-1.734-.6 2.169 2.169 0 01-.622-1.664c0-.375.012-.745.037-1.1a10.659 10.659 0 01.146-1.138 8.8 8.8 0 01.273-1.12 5.119 5.119 0 01.425-.964 3.312 3.312 0 01.579-.759 2.3 2.3 0 01.753-.468 2.7 2.7 0 01.923-.178c.041.022.114.063.233.141.241.157.519.336.826.532a5.807 5.807 0 001.325.592 5.269 5.269 0 003.3 0 5.814 5.814 0 001.325-.592c.314-.2.584-.375.825-.532.118-.077.191-.119.233-.141a2.7 2.7 0 01.923.178 2.307 2.307 0 01.753.468 3.3 3.3 0 01.579.759 5.1 5.1 0 01.425.963 8.782 8.782 0 01.273 1.12 10.749 10.749 0 01.146 1.138c.025.354.037.724.038 1.1a2.168 2.168 0 01-.623 1.663zm0 0"/></svg>