<svg xmlns="http://www.w3.org/2000/svg" width="14" height="16.781" viewBox="0 0 14 16.781"><g fill="#1a1724"><path data-name="Path 686" d="M6.894 8.083A3.911 3.911 0 009.752 6.9a3.911 3.911 0 001.184-2.858 3.911 3.911 0 00-1.184-2.858 4.041 4.041 0 00-5.715 0 3.911 3.911 0 00-1.184 2.858A3.911 3.911 0 004.037 6.9a3.912 3.912 0 002.857 1.183zm0 0"/><path data-name="Path 687" d="M13.966 12.904a9.983 9.983 0 00-.136-1.06 8.354 8.354 0 00-.261-1.066 5.266 5.266 0 00-.438-.994 3.752 3.752 0 00-.661-.861 2.913 2.913 0 00-.949-.6 3.281 3.281 0 00-1.212-.219 1.23 1.23 0 00-.657.279c-.2.128-.427.277-.684.441a3.92 3.92 0 01-.885.39 3.437 3.437 0 01-2.166 0 3.91 3.91 0 01-.885-.39c-.255-.163-.485-.311-.685-.441a1.228 1.228 0 00-.657-.279 3.277 3.277 0 00-1.212.22 2.911 2.911 0 00-.949.6 3.753 3.753 0 00-.661.861 5.276 5.276 0 00-.438.994 8.374 8.374 0 00-.261 1.066 9.949 9.949 0 00-.136 1.061c-.022.321-.034.654-.034.991a2.786 2.786 0 00.828 2.108 2.979 2.979 0 002.133.778h8.08a2.978 2.978 0 002.132-.778 2.785 2.785 0 00.828-2.11c0-.338-.012-.672-.034-.991zm0 0"/></g></svg>