<svg xmlns="http://www.w3.org/2000/svg" width="14.689" height="16" viewBox="0 0 14.689 16"><path data-name="Path 565" d="M14.538 9.262c.478-4.014-.23-6.549-1.506-7.7-2.06-1.949-9.018-2.243-11.483.092C.442 2.796.049 4.473.009 6.548s-.089 5.965 3.54 7.021v1.611s-.025.653.393.784c.478.155.694-.149 2.181-1.92a13.637 13.637 0 004.613-.35c.5-.168 3.343-.543 3.8-4.432zm-8.17 3.651s-1.574 1.958-2.063 2.466c-.16.165-.336.15-.333-.178l.012-2.675c-3.08-.881-2.9-4.192-2.865-5.925A5.813 5.813 0 012.408 2.49C4.57.468 10.671.92 12.22 2.377c1.9 1.681 1.224 6.428 1.228 6.59-.391 3.246-2.693 3.452-3.116 3.593a12.581 12.581 0 01-3.969.35z"/><path data-name="Path 566" d="M7.239 2.871a.2.2 0 000 .4 3.632 3.632 0 013.655 3.955.2.2 0 10.391 0 4.03 4.03 0 00-4.046-4.355z"/><path data-name="Path 567" d="M9.862 6.803a.2.2 0 10.391.009 2.7 2.7 0 00-2.657-2.894.2.2 0 00-.027.4 2.305 2.305 0 012.293 2.485z"/><path data-name="Path 568" d="M9.441 8.521a.617.617 0 00-.8.116l-.29.376a.519.519 0 01-.423.166 3.875 3.875 0 01-2.55-2.638.561.561 0 01.16-.438l.363-.3a.669.669 0 00.107-.834 8.677 8.677 0 00-1-1.435.537.537 0 00-.722-.122h-.003c-.578.338-1.21.97-1.008 1.621a10.923 10.923 0 003 4.527 11.541 11.541 0 003.092 1.768l.006.009c.629.21 1.241-.447 1.567-1.042a.572.572 0 00-.115-.738 7.871 7.871 0 00-1.386-1.03z"/><path data-name="Path 569" d="M7.871 5.403c.642.037.953.373.986 1.061a.2.2 0 10.391-.019 1.34 1.34 0 00-1.355-1.442.2.2 0 00-.022.4z"/></svg>