<svg xmlns="http://www.w3.org/2000/svg" width="30" height="29.883" viewBox="0 0 30 29.883"><g data-name="wallet (2)"><g data-name="Group 87"><path data-name="Path 621" d="M27.129 12.656V8.73a2.64 2.64 0 00-2.637-2.637c-5.159 0-17.3.1-22.559.1A2.641 2.641 0 000 8.73v18.516a2.64 2.64 0 002.637 2.637h21.855a2.64 2.64 0 002.637-2.637v-5.332h.234A2.64 2.64 0 0030 19.277v-3.984zm-2.637 15.469H2.637a.88.88 0 01-.879-.879v-1.113h23.613v1.113a.88.88 0 01-.879.879zm.879-3.75H1.758V8.73a.88.88 0 01.879-.879h21.855a.88.88 0 01.879.879v3.926h-5.8a2.64 2.64 0 00-2.637 2.637v3.984a2.64 2.64 0 002.637 2.637h5.8zm2.871-5.1a.88.88 0 01-.879.879H19.57a.88.88 0 01-.879-.879v-3.982a.88.88 0 01.879-.879h7.793a.88.88 0 01.879.879z" fill="#ff6047"/><path data-name="Path 624" d="M24.316 6.19V2.754a.879.879 0 00-.879-.879h-5.683v-1A.879.879 0 0016.875 0H2.813a.879.879 0 00-.879.879V6.19zm-1.757-2.557V6.19h-4.8V3.633zM3.691 1.758H16V6.19H3.691z" fill="#ff2060"/></g><g data-name="Group 88"><path data-name="Path 622" d="M22.455 17.092a.937.937 0 10-.647 1.08.938.938 0 00.647-1.08z" fill="#ff2060"/></g></g></svg>