<svg xmlns="http://www.w3.org/2000/svg" width="30" height="26.855" viewBox="0 0 30 26.855"><path data-name="Path 117" d="M27.044 3.737A4.056 4.056 0 0023.006 0H4.051A4.057 4.057 0 000 4.053v18.75a4.057 4.057 0 004.051 4.053h21.9A4.057 4.057 0 0030 22.803V7.638a4.059 4.059 0 00-2.956-3.901zM4.051 1.893h18.955a2.162 2.162 0 012.107 1.692H4.051a4.025 4.025 0 00-2.159.626v-.158a2.162 2.162 0 012.159-2.159zm21.9 23.069h-21.9a2.162 2.162 0 01-2.159-2.159V7.638a2.162 2.162 0 012.159-2.159h21.9a2.162 2.162 0 012.159 2.159v3.3h-6.037a4.338 4.338 0 000 8.676h6.034V22.8a2.162 2.162 0 01-2.158 2.162zm2.159-7.238h-6.037a2.445 2.445 0 010-4.889h6.034z"/><circle data-name="Ellipse 40" cx=".986" cy=".986" r=".986" transform="translate(21.439 14.366)"/></svg>