<svg xmlns="http://www.w3.org/2000/svg" width="16" height="16" viewBox="0 0 16 16"><path d="M11.839 9.19c-.031-.015-1.2-.589-1.4-.664a.807.807 0 00-.272-.06.462.462 0 00-.393.233c-.117.173-.469.586-.578.709-.014.016-.034.036-.045.036s-.191-.074-.246-.1a6.138 6.138 0 01-2.331-2.071.129.129 0 01-.02-.046.376.376 0 01.068-.081c.064-.063.132-.146.2-.226l.094-.112a1.257 1.257 0 00.19-.3l.026-.053a.544.544 0 00-.016-.512c-.028-.055-.52-1.244-.572-1.369-.126-.3-.292-.442-.524-.442h-.09a2.8 2.8 0 00-.97.249 2.03 2.03 0 00-.753 1.727 3.723 3.723 0 00.807 2.05l.033.048a7.6 7.6 0 003.259 2.83 5.3 5.3 0 001.969.5 3.077 3.077 0 00.32-.019l.057-.005a2.069 2.069 0 001.443-1.021 1.614 1.614 0 00.092-1.063.736.736 0 00-.348-.238z"/><path d="M8.142 0A7.838 7.838 0 00.284 7.8a7.742 7.742 0 001.077 3.944l-1.35 3.982a.208.208 0 00.26.265l4.152-1.319A7.871 7.871 0 0016 7.8 7.838 7.838 0 008.142 0zm0 13.974a6.226 6.226 0 01-3.425-1.021.208.208 0 00-.177-.024l-2.08.661.671-1.981a.208.208 0 00-.029-.189A6.09 6.09 0 011.917 7.8a6.225 6.225 0 116.225 6.174z"/></svg>